<svg width="851" height="1059" viewBox="0 0 851 1059" fill="none" xmlns="http://www.w3.org/2000/svg">
<g opacity="0.6" clip-path="url(#clip0_0_1)">
<path d="M995.638 729.932C923.388 789.223 819.046 679.136 639.233 689.263C483.49 698.051 459.575 787.171 340.496 762.456C253.496 744.416 166.624 677.763 129.055 580.843C87.6201 473.979 125.324 378.665 135.272 355.671C179.772 252.514 267.53 208.947 298.382 194.214C425.487 133.567 550.638 169.074 610.683 186.078C836.222 250.024 1054.54 455.594 1035.4 635.802C1032.91 659.398 1028.25 703.155 995.638 729.932Z" fill="url(#paint0_linear_0_1)"/>
</g>
<g clip-path="url(#clip1_0_1)">
<path d="M727.394 562.067C727.261 561.839 727.128 561.611 726.997 561.382C726.865 561.154 726.734 560.924 726.604 560.694C726.474 560.465 726.344 560.234 726.215 560.003C726.086 559.772 725.957 559.539 725.829 559.306C725.615 552.606 725.612 545.965 725.82 539.383C726.023 532.848 726.435 526.391 727.054 520.013C727.665 513.682 728.475 507.45 729.484 501.315C730.485 495.227 731.678 489.254 733.063 483.396C733.221 482.721 733.381 482.048 733.545 481.378C733.708 480.708 733.875 480.042 734.045 479.381C734.214 478.716 734.385 478.055 734.56 477.396C734.735 476.738 734.912 476.082 735.092 475.428C736.426 470.537 737.894 465.765 739.496 461.113C741.088 456.493 742.806 452.001 744.653 447.637C746.484 443.304 748.438 439.104 750.512 435.037C752.572 431.001 754.746 427.106 757.034 423.352L757.395 422.763L757.757 422.178L758.12 421.595L758.484 421.015L758.747 420.6L759.012 420.185C759.101 420.048 759.19 419.911 759.279 419.774C759.369 419.637 759.46 419.502 759.552 419.369L759.769 419.209L759.986 419.05L760.201 418.892L760.415 418.734L760.428 418.728L760.442 418.72L760.456 418.711L760.469 418.704L760.556 418.641L760.641 418.576L760.725 418.512L760.807 418.448L761.18 418.178L761.553 417.913L761.925 417.648L762.295 417.381L762.013 417.191L761.305 416.717L761.309 416.713C761.37 416.748 761.431 416.785 761.49 416.824C761.55 416.863 761.61 416.9 761.671 416.936C761.732 416.974 761.792 417.012 761.851 417.05C761.91 417.088 761.97 417.127 762.03 417.167L762.098 417.206L762.168 417.246L762.238 417.286C762.261 417.298 762.284 417.313 762.305 417.331C762.325 417.345 762.345 417.357 762.366 417.366L762.427 417.401L762.488 417.436L762.549 417.471C765.129 419.06 767.715 420.674 770.268 422.367C772.821 424.059 775.334 425.823 777.78 427.721C780.218 429.605 782.582 431.66 784.86 433.877C787.133 436.083 789.283 438.508 791.295 441.132C793.418 443.921 795.317 447.003 796.96 450.327C798.586 453.592 799.923 457.102 800.943 460.784C801.925 464.289 802.51 467.972 802.679 471.71C802.842 475.306 802.466 478.91 801.573 482.306C801.452 482.749 801.322 483.186 801.183 483.616C801.043 484.047 800.894 484.471 800.736 484.888C800.578 485.306 800.41 485.716 800.233 486.119C800.056 486.521 799.871 486.917 799.676 487.305C799.595 487.467 799.512 487.627 799.428 487.786C799.343 487.945 799.258 488.102 799.171 488.258C799.084 488.414 798.996 488.57 798.907 488.725C798.818 488.88 798.728 489.033 798.636 489.186C796.947 492.041 794.8 494.347 792.356 495.932C789.898 497.511 787.227 498.402 784.505 498.55C781.645 498.71 778.787 498.153 776.079 496.905C773.174 495.572 770.475 493.536 768.114 490.897C767.298 489.99 766.525 489.016 765.799 487.981C765.08 486.955 764.408 485.87 763.789 484.732C763.175 483.604 762.614 482.424 762.111 481.201C761.611 479.987 761.17 478.731 760.792 477.44C760.614 481.45 761.076 485.464 762.149 489.212C763.28 493.153 764.818 496.86 766.718 500.225C768.724 503.807 770.95 507.157 773.373 510.24C775.811 513.384 778.402 516.332 780.961 519.047C783.519 521.762 786.169 524.538 788.734 527.434C791.296 530.281 793.735 533.323 796.039 536.544C798.274 539.656 800.25 543.085 801.934 546.771C803.588 550.41 804.784 554.391 805.473 558.554C806.211 563.089 806.174 567.789 805.364 572.302C804.971 574.497 804.41 576.632 803.691 578.673C802.967 580.731 802.098 582.691 801.098 584.528L801.005 584.696L800.911 584.863L800.815 585.03L800.718 585.196C798.278 589.486 795.214 593.063 791.713 595.71C789.95 597.042 788.093 598.133 786.169 598.966C784.199 599.819 782.17 600.405 780.114 600.718C776.201 601.203 772.257 600.899 768.411 599.817C764.451 598.702 760.602 596.97 756.94 594.656C753.154 592.273 749.535 589.438 746.127 586.183C742.689 582.911 739.434 579.304 736.388 575.392C735.579 574.355 734.784 573.299 734.004 572.223C733.224 571.148 732.458 570.055 731.708 568.944C730.957 567.832 730.222 566.703 729.504 565.558C728.786 564.412 728.083 563.249 727.394 562.067Z" fill="#F2F2F2"/>
<path d="M790.296 484.436C787.878 482.748 785.553 480.83 783.339 478.695C778.916 474.432 774.965 469.348 771.604 463.594C769.937 460.739 768.427 457.725 767.087 454.574C765.968 451.913 764.975 449.159 764.114 446.33C763.273 443.57 762.566 440.739 761.997 437.856C761.441 435.04 761.028 432.177 760.758 429.286C760.493 426.454 760.377 423.601 760.411 420.748C760.414 420.587 760.417 420.427 760.419 420.268C760.421 420.109 760.424 419.949 760.427 419.788C760.43 419.627 760.435 419.469 760.441 419.312L760.459 418.838C760.357 418.945 760.256 419.054 760.155 419.164L759.852 419.495L759.551 419.828L759.251 420.163L759.058 420.377L758.865 420.594L758.672 420.811L758.482 421.03L758.744 420.614L759.014 420.186C759.102 420.049 759.192 419.911 759.281 419.775C759.371 419.638 759.462 419.503 759.554 419.37L759.771 419.21L759.987 419.051L760.198 418.893L760.412 418.736L760.426 418.73L760.439 418.721L760.453 418.712L760.467 418.706L760.553 418.642L760.639 418.578L760.723 418.514L760.804 418.449L761.178 418.18L761.551 417.914L761.923 417.65L762.296 417.384L762.004 417.19L761.296 416.715L761.301 416.711C761.362 416.746 761.423 416.783 761.482 416.822C761.542 416.861 761.602 416.898 761.663 416.934C761.724 416.972 761.784 417.01 761.843 417.048C761.902 417.086 761.961 417.125 762.022 417.165L762.09 417.204L762.159 417.244L762.229 417.284C762.253 417.297 762.275 417.311 762.297 417.329L762.29 417.48L762.282 417.622L762.276 417.762L762.27 417.905C762.009 422.712 762.195 427.543 762.825 432.288C763.472 437.172 764.534 441.939 765.991 446.497C767.496 451.215 769.377 455.699 771.601 459.87C773.9 464.185 776.533 468.159 779.457 471.725C782.401 475.264 785.611 478.38 789.037 481.02C790.728 482.324 792.47 483.506 794.255 484.561C796.025 485.606 797.836 486.521 799.679 487.302C799.598 487.464 799.515 487.624 799.431 487.783C799.346 487.942 799.261 488.099 799.174 488.255C799.087 488.411 798.999 488.567 798.91 488.722C798.821 488.877 798.731 489.03 798.639 489.183C797.928 488.866 797.221 488.529 796.518 488.172C795.814 487.815 795.114 487.438 794.418 487.042C793.722 486.646 793.03 486.23 792.343 485.795C791.657 485.359 790.974 484.906 790.296 484.436Z" fill="white"/>
<path d="M742.433 520.358C741.641 518.769 740.894 517.15 740.191 515.501C739.488 513.853 738.831 512.181 738.221 510.487C737.61 508.792 737.046 507.076 736.528 505.338C736.011 503.601 735.542 501.848 735.122 500.08C734.908 499.142 734.71 498.201 734.529 497.257C734.348 496.313 734.183 495.367 734.036 494.42C733.889 493.472 733.759 492.523 733.645 491.571C733.531 490.62 733.434 489.669 733.356 488.719C733.316 488.276 733.28 487.833 733.249 487.388C733.217 486.944 733.189 486.5 733.164 486.056C733.139 485.612 733.119 485.168 733.101 484.725C733.084 484.282 733.07 483.839 733.06 483.397C733.218 482.722 733.379 482.049 733.542 481.379C733.706 480.709 733.872 480.042 734.04 479.377C734.209 478.713 734.381 478.052 734.556 477.393C734.73 476.735 734.908 476.079 735.089 475.425C735.049 475.972 735.016 476.521 734.988 477.072C734.96 477.622 734.938 478.174 734.921 478.728C734.905 479.281 734.894 479.837 734.889 480.393C734.884 480.95 734.885 481.507 734.892 482.066C734.891 482.37 734.893 482.674 734.898 482.979C734.902 483.283 734.908 483.587 734.916 483.892C734.924 484.196 734.934 484.501 734.945 484.805C734.957 485.109 734.971 485.414 734.986 485.718C735.16 489.134 735.558 492.523 736.177 495.844C736.803 499.205 737.62 502.497 738.62 505.691C739.639 508.946 740.815 512.109 742.139 515.159C743.486 518.262 744.958 521.264 746.55 524.15C748.264 527.266 750.075 530.299 751.983 533.251C753.892 536.202 755.873 539.073 757.927 541.863C759.982 544.65 762.098 547.351 764.274 549.966C766.45 552.581 768.663 555.105 770.912 557.539C773.214 560.038 775.564 562.443 777.96 564.752C780.356 567.061 782.791 569.269 785.265 571.376C787.738 573.482 790.248 575.486 792.796 577.386C795.343 579.287 797.92 581.08 800.525 582.763C800.644 582.842 800.752 582.949 800.843 583.08C800.932 583.208 801.004 583.355 801.056 583.516C801.108 583.675 801.138 583.844 801.146 584.017C801.154 584.191 801.137 584.366 801.096 584.531C801.083 584.602 801.064 584.672 801.04 584.738C801.017 584.803 800.989 584.864 800.957 584.921C800.925 584.977 800.889 585.029 800.849 585.076C800.809 585.121 800.765 585.161 800.719 585.195C800.67 585.225 800.619 585.246 800.566 585.259C800.513 585.271 800.459 585.275 800.405 585.27C800.351 585.265 800.296 585.252 800.244 585.23C800.189 585.208 800.137 585.178 800.088 585.14C799.766 584.932 799.444 584.724 799.122 584.515C798.801 584.305 798.48 584.095 798.16 583.883C797.839 583.671 797.519 583.457 797.199 583.241C796.88 583.025 796.561 582.806 796.242 582.584C793.587 580.75 790.967 578.806 788.383 576.752C785.798 574.698 783.253 572.537 780.746 570.269C778.24 568.001 775.78 565.632 773.365 563.161C770.949 560.689 768.585 558.12 766.272 555.452C764.037 552.883 761.831 550.228 759.678 547.482C757.525 544.736 755.425 541.903 753.405 538.979C751.384 536.054 749.443 533.042 747.605 529.937C745.766 526.833 744.035 523.642 742.433 520.358Z" fill="white"/>
<path d="M792.452 265.214L790.551 265.546L803.303 201.186C804.243 196.888 804.395 192.349 803.749 187.954C803.188 184.364 801.8 181.102 799.783 178.632C797.669 176.162 795.08 174.546 792.313 173.97C788.943 173.269 785.503 173.476 782.194 174.58L695.526 201.121C692.501 202.108 689.605 203.709 686.94 205.871C684.04 208.189 681.344 210.938 678.901 214.066C676.388 217.256 674.133 220.793 672.172 224.62C670.256 228.323 668.694 232.336 667.524 236.564L576.843 571.956C575.336 577.471 574.356 583.221 573.928 589.069C573.532 594.26 573.719 599.502 574.484 604.618C575.123 609.063 576.457 613.275 578.398 616.974C580.178 620.338 582.686 622.882 585.58 624.259L677.151 666.65C681.218 668.513 685.585 668.862 689.788 667.662C694.282 666.346 698.508 663.729 702.173 659.993C706.288 655.835 709.827 650.735 712.628 644.926C715.729 638.545 718.047 631.533 719.491 624.161L780.883 314.328L782.809 314.12L792.452 265.214Z" fill="#2F2E41"/>
<path d="M785.828 261.651L783.926 261.983L796.678 197.622C797.618 193.325 797.771 188.785 797.124 184.391C796.563 180.801 795.175 177.539 793.158 175.069C791.045 172.599 788.456 170.983 785.689 170.407C782.319 169.705 778.879 169.912 775.569 171.016L688.901 197.557C685.876 198.544 682.981 200.146 680.315 202.307C677.416 204.626 674.72 207.375 672.277 210.503C669.764 213.693 667.508 217.23 665.547 221.056C663.631 224.76 662.07 228.773 660.899 233L570.219 568.393C568.711 573.907 567.732 579.658 567.304 585.505C566.907 590.696 567.095 595.938 567.86 601.054C568.498 605.5 569.833 609.712 571.774 613.411C573.554 616.775 576.062 619.319 578.956 620.696L670.526 663.087C674.594 664.949 678.96 665.299 683.164 664.099C687.657 662.782 691.883 660.165 695.548 656.43C699.664 652.271 703.203 647.171 706.003 641.363C709.105 634.981 711.422 627.97 712.867 620.598L774.258 310.764L776.185 310.557L785.828 261.651Z" fill="#3F3D56"/>
<path d="M774.803 179.414L762.063 183.167C762.202 184.649 762.092 186.155 761.742 187.572C761.345 189.23 760.769 190.801 760.033 192.235C758.377 195.489 756.166 198.164 753.585 200.037C753.276 200.258 752.968 200.462 752.661 200.649C752.354 200.837 752.047 201.006 751.74 201.159C751.434 201.312 751.131 201.446 750.829 201.563C750.528 201.68 750.229 201.779 749.935 201.859L700.125 215.422C699.201 215.711 698.238 215.696 697.319 215.379C696.579 215.112 695.926 214.521 695.464 213.699C694.998 212.817 694.735 211.77 694.708 210.688C694.67 209.308 694.832 207.932 695.185 206.636C695.274 206.286 695.374 205.934 695.488 205.579C695.601 205.225 695.724 204.87 695.857 204.516C695.99 204.159 696.134 203.805 696.291 203.452C696.448 203.099 696.613 202.747 696.787 202.395L687.356 205.173C685.084 205.889 682.909 207.073 680.906 208.683C678.718 210.416 676.683 212.478 674.841 214.83C672.942 217.232 671.238 219.899 669.76 222.786C668.318 225.577 667.146 228.602 666.272 231.79L575.762 570.097C574.636 574.254 573.913 578.589 573.611 582.994C573.332 586.883 573.497 590.806 574.1 594.628C574.601 597.931 575.626 601.051 577.105 603.773C578.46 606.243 580.35 608.09 582.515 609.06L674.759 649.359C677.803 650.671 681.052 650.867 684.17 649.927C687.491 648.904 690.611 646.936 693.319 644.155C696.347 641.071 698.954 637.303 701.024 633.02C703.315 628.315 705.034 623.149 706.117 617.717L790.398 199.494C791.106 196.302 791.237 192.928 790.781 189.654C790.385 186.971 789.376 184.521 787.894 182.646C786.342 180.772 784.425 179.529 782.367 179.064C779.854 178.497 777.281 178.616 774.803 179.414Z" fill="white"/>
<path d="M725.334 339.64H541.836V256.023H725.334V339.64Z" fill="white"/>
<path d="M671.687 369.152H491.847V486.381H671.687V369.152Z" fill="white"/>
<path d="M521.063 425.445C528.247 425.445 534.071 417.614 534.071 407.953C534.071 398.292 528.247 390.46 521.063 390.46C513.878 390.46 508.054 398.292 508.054 407.953C508.054 417.614 513.878 425.445 521.063 425.445Z" fill="#FB8700"/>
<path d="M551.106 396.291C550.531 396.291 549.98 396.598 549.573 397.145C549.166 397.691 548.938 398.433 548.938 399.206C548.938 399.979 549.166 400.721 549.573 401.268C549.98 401.815 550.531 402.122 551.106 402.122H653.316C653.89 402.12 654.44 401.812 654.845 401.265C655.251 400.719 655.478 399.978 655.478 399.206C655.478 398.434 655.251 397.694 654.845 397.147C654.44 396.601 653.89 396.293 653.316 396.291H551.106Z" fill="#E6E6E6"/>
<path d="M551.106 413.784C550.821 413.782 550.539 413.856 550.275 414.002C550.012 414.148 549.772 414.362 549.57 414.632C549.368 414.902 549.207 415.223 549.098 415.577C548.988 415.93 548.931 416.31 548.931 416.693C548.93 417.076 548.986 417.456 549.094 417.81C549.203 418.164 549.362 418.486 549.563 418.757C549.765 419.029 550.004 419.244 550.267 419.391C550.53 419.538 550.812 419.614 551.097 419.614H595.087C595.372 419.614 595.654 419.539 595.917 419.393C596.18 419.246 596.419 419.031 596.62 418.761C596.822 418.49 596.981 418.168 597.09 417.815C597.199 417.461 597.255 417.082 597.255 416.699C597.255 416.316 597.199 415.937 597.09 415.583C596.981 415.23 596.822 414.908 596.62 414.637C596.419 414.367 596.18 414.152 595.917 414.005C595.654 413.859 595.372 413.784 595.087 413.784H551.106Z" fill="#E6E6E6"/>
<path d="M511.085 441.749C509.435 441.749 508.093 443.057 508.093 444.665C508.093 446.272 509.435 447.58 511.085 447.58H652.102C653.752 447.58 655.094 446.272 655.094 444.665C655.094 443.058 653.752 441.749 652.102 441.749H511.085Z" fill="#E6E6E6"/>
<path d="M511.085 459.242C509.435 459.242 508.093 460.55 508.093 462.158C508.093 463.765 509.435 465.073 511.085 465.073H619.642C621.291 465.073 622.633 463.765 622.633 462.158C622.633 460.55 621.291 459.242 619.642 459.242H511.085Z" fill="#E6E6E6"/>
<path d="M673.515 488.84H490.018V366.693H673.515V488.84ZM493.675 483.921H669.857V371.612H493.675V483.921Z" fill="#E6E6E6"/>
<path d="M572.881 314.776C580.065 314.776 585.89 306.944 585.89 297.283C585.89 287.622 580.065 279.79 572.881 279.79C565.697 279.79 559.873 287.622 559.873 297.283C559.873 306.944 565.697 314.776 572.881 314.776Z" fill="#FB8700"/>
<path d="M602.924 285.621C602.349 285.621 601.798 285.928 601.391 286.475C600.985 287.022 600.756 287.763 600.756 288.536C600.756 289.31 600.985 290.051 601.391 290.598C601.798 291.145 602.349 291.452 602.924 291.452H705.134C705.708 291.45 706.258 291.142 706.664 290.595C707.069 290.049 707.297 289.308 707.297 288.536C707.297 287.764 707.069 287.024 706.664 286.477C706.258 285.931 705.708 285.623 705.134 285.621H602.924Z" fill="#E6E6E6"/>
<path d="M602.924 303.114C602.64 303.112 602.357 303.187 602.094 303.332C601.83 303.478 601.59 303.692 601.388 303.962C601.186 304.232 601.026 304.553 600.916 304.907C600.806 305.26 600.75 305.64 600.749 306.023C600.748 306.406 600.804 306.786 600.913 307.14C601.021 307.494 601.181 307.816 601.382 308.088C601.583 308.359 601.822 308.574 602.085 308.721C602.348 308.868 602.63 308.944 602.915 308.945H683.341C683.916 308.945 684.467 308.637 684.874 308.091C685.28 307.544 685.509 306.802 685.509 306.029C685.509 305.256 685.28 304.514 684.874 303.968C684.467 303.421 683.916 303.114 683.341 303.114H602.924Z" fill="#E6E6E6"/>
<path d="M725.334 339.64H541.836V256.023H725.334V339.64ZM545.494 334.722H721.676V260.942H545.494V334.722Z" fill="#E6E6E6"/>
<path d="M364.781 658.158H374.031L378.431 610.179L364.779 610.18L364.781 658.158Z" fill="#FFB6B6"/>
<path d="M391.871 669.707L362.799 669.708L362.799 654.604L382.008 654.603C384.624 654.603 387.132 656 388.982 658.487C390.831 660.974 391.87 664.347 391.871 667.864L391.871 669.707Z" fill="#2F2E41"/>
<path d="M272.286 642.038L280.391 648.03L301.438 608.838L289.474 599.994L272.286 642.038Z" fill="#FFB6B6"/>
<path d="M291.886 669.708L266.41 650.875L271.822 637.639L288.655 650.084C290.947 651.778 292.645 654.627 293.374 658.005C294.104 661.383 293.806 665.012 292.546 668.094L291.886 669.708Z" fill="#2F2E41"/>
<path d="M364.349 631.528C363.525 631.527 362.729 631.123 362.11 630.391C361.491 629.659 361.091 628.649 360.985 627.55L349.417 507.677C349.366 507.147 349.191 506.652 348.919 506.263C348.646 505.874 348.289 505.611 347.898 505.511C347.507 505.411 347.103 505.48 346.744 505.708C346.384 505.935 346.087 506.31 345.895 506.778L297.683 624.401C297.285 625.361 296.644 626.098 295.877 626.476C295.109 626.855 294.266 626.851 293.501 626.465L282.992 621.081C282.57 620.864 282.183 620.536 281.856 620.116C281.529 619.696 281.268 619.192 281.087 618.635C280.907 618.077 280.811 617.476 280.806 616.868C280.801 616.26 280.886 615.656 281.056 615.093L314.454 504.769C314.538 504.489 314.596 504.195 314.624 503.895C319.148 456.814 330.657 432.872 334.077 426.656C334.326 426.199 334.491 425.668 334.556 425.108C334.621 424.547 334.585 423.974 334.451 423.437L333.981 421.54C333.793 420.788 333.754 419.982 333.869 419.203C333.984 418.424 334.247 417.699 334.634 417.099C346.956 398.226 368.433 408.525 368.648 408.631L368.756 408.685L368.823 408.808C392.905 453.22 384.001 597.466 381.972 625.931C381.896 627.001 381.541 628 380.971 628.752C380.4 629.504 379.65 629.961 378.853 630.04L364.613 631.515C364.524 631.524 364.436 631.528 364.349 631.528Z" fill="#283342" fill-opacity="0.8"/>
<path d="M357.82 298.445C369.189 298.445 378.405 286.052 378.405 270.763C378.405 255.475 369.189 243.081 357.82 243.081C346.45 243.081 337.234 255.475 337.234 270.763C337.234 286.052 346.45 298.445 357.82 298.445Z" fill="#FFB8B8"/>
<path d="M325.994 446.91L386.569 454.324C381.287 429.63 376.449 405.023 380.393 380.505C385.401 358.616 385.867 346.49 372.655 336.182L363.734 309.422L347.59 308.633L339.718 305.731C333.357 319.482 330.756 335.782 332.359 351.831C335.781 386.732 334.857 419.118 325.994 446.91Z" fill="#BC14B5"/>
<path d="M335.188 323.382L329.095 285.777C327.824 276.875 328.143 267.694 330.026 258.991C330.231 258.099 330.478 257.225 330.766 256.376C332.452 251.433 335.104 247.198 338.439 244.121C341.773 241.044 345.666 239.241 349.702 238.903C363.55 237.617 365.583 239.58 366.083 240.548C373.908 240.123 379.975 244.188 382.744 251.711C383.015 252.458 383.161 253.275 383.172 254.106C383.183 254.937 383.058 255.761 382.806 256.52C382.555 257.279 382.182 257.954 381.715 258.499C381.249 259.043 380.699 259.444 380.104 259.671C376.237 261.171 370.802 262.836 366.725 262.346C358.554 275.526 361.895 299.673 370.185 314.061L370.51 314.626L362.297 316.89L352.752 299.016C352.563 298.662 352.29 298.406 351.977 298.291C351.665 298.176 351.333 298.209 351.036 298.383C350.74 298.558 350.497 298.864 350.348 299.251C350.199 299.638 350.153 300.082 350.219 300.508L353.117 319.439L335.188 323.382Z" fill="#2F2E41"/>
<path d="M780.404 670H206V668.057H780.665L780.404 670Z" fill="#CACACA"/>
<path d="M452.853 424.643L303.031 567.113L267.128 498.841L416.95 356.372L452.853 424.643Z" fill="white"/>
<path d="M317.702 522.708C323.568 517.13 324.96 506.213 320.812 498.325C316.664 490.437 308.546 488.565 302.68 494.143C296.814 499.721 295.422 510.637 299.57 518.525C303.718 526.413 311.836 528.286 317.702 522.708Z" fill="#FB8700"/>
<path d="M329.714 475.578C329.244 476.024 328.926 476.703 328.829 477.465C328.731 478.227 328.863 479.01 329.195 479.641C329.527 480.273 330.032 480.701 330.599 480.832C331.166 480.962 331.748 480.785 332.217 480.338L415.669 400.982C416.137 400.534 416.454 399.856 416.55 399.095C416.647 398.334 416.514 397.553 416.183 396.922C415.852 396.292 415.348 395.864 414.782 395.733C414.216 395.601 413.635 395.777 413.165 396.221L329.714 475.578Z" fill="#E6E6E6"/>
<path d="M337.224 489.86C336.755 490.306 336.436 490.983 336.338 491.745C336.24 492.506 336.371 493.289 336.701 493.921C337.032 494.552 337.536 494.982 338.102 495.114C338.668 495.247 339.25 495.072 339.72 494.628L339.728 494.621L405.386 432.185C405.855 431.738 406.174 431.059 406.271 430.297C406.368 429.535 406.236 428.752 405.904 428.121C405.74 427.808 405.531 427.542 405.291 427.338C405.05 427.134 404.781 426.996 404.501 426.931C403.934 426.8 403.352 426.978 402.882 427.424L337.224 489.86Z" fill="#E6E6E6"/>
<path d="M452.853 424.643L303.031 567.113L267.128 498.841L416.95 356.372L452.853 424.643ZM303.905 560.257L447.754 423.467L416.076 363.228L272.227 500.017L303.905 560.257Z" fill="#E6E6E6"/>
<path d="M794.955 399.349C795.486 399.321 796.016 399.442 796.51 399.705C796.98 399.958 797.405 400.338 797.76 400.823C798.117 401.31 798.395 401.891 798.578 402.529C798.771 403.205 798.859 403.927 798.836 404.651C798.815 405.393 798.686 406.123 798.458 406.8C798.235 407.463 797.924 408.067 797.541 408.581C797.161 409.093 796.714 409.507 796.223 409.803C795.724 410.104 795.186 410.27 794.64 410.29C794.108 410.311 793.579 410.184 793.086 409.915C792.619 409.658 792.196 409.274 791.844 408.788C791.491 408.299 791.216 407.718 791.036 407.081C790.846 406.407 790.761 405.689 790.784 404.969C790.806 404.23 790.934 403.504 791.161 402.831C791.383 402.174 791.691 401.576 792.07 401.065C792.448 400.554 792.891 400.14 793.379 399.842C793.875 399.54 794.411 399.372 794.955 399.349Z" fill="#F2F2F2"/>
<path d="M373.738 468.798L363.995 397.178L364.681 352.887L342.723 351.964L346.84 401.792L361.038 470.887C359.86 472.813 359.138 475.17 358.965 477.653C358.792 480.136 359.177 482.632 360.07 484.819C360.962 487.005 362.322 488.782 363.972 489.919C365.623 491.057 367.489 491.503 369.331 491.2C371.172 490.897 372.903 489.859 374.301 488.221C375.699 486.582 376.7 484.417 377.175 482.006C377.649 479.594 377.575 477.047 376.963 474.693C376.35 472.339 375.227 470.285 373.738 468.798Z" fill="#FFB8B8"/>
<path d="M341.351 356.578C349.307 352.503 358.098 352.503 366.054 356.578L364.682 319.668C364.682 317.729 364.398 315.81 363.846 314.018C363.294 312.227 362.485 310.6 361.466 309.229C360.446 307.858 359.236 306.77 357.904 306.028C356.572 305.286 355.144 304.904 353.703 304.904C352.261 304.904 350.833 305.286 349.501 306.028C348.169 306.77 346.959 307.858 345.939 309.229C344.92 310.6 344.111 312.227 343.559 314.018C343.007 315.81 342.723 317.729 342.723 319.668L341.351 356.578Z" fill="#BC14B5"/>
</g>
<defs>
<linearGradient id="paint0_linear_0_1" x1="371.349" y1="915.068" x2="719.775" y2="258.08" gradientUnits="userSpaceOnUse">
<stop offset="0.697917" stop-color="#F09E3E"/>
<stop offset="1" stop-color="#FFD94F"/>
</linearGradient>
<clipPath id="clip0_0_1">
<rect width="937.962" height="671.376" fill="white" transform="translate(803.697 1058.85) rotate(-148.965)"/>
</clipPath>
<clipPath id="clip1_0_1">
<rect width="600" height="500" fill="white" transform="translate(206 170)"/>
</clipPath>
</defs>
</svg>
