<svg width="184" height="132" viewBox="0 0 184 132" fill="none" xmlns="http://www.w3.org/2000/svg">
<path d="M39.5471 0.37505C39.2879 0.37326 39.0322 0.419868 38.8029 0.510674C38.5737 0.601481 38.3782 0.733632 38.2341 0.895219C38.0899 1.05681 38.0017 1.24275 37.9772 1.43631C37.9528 1.62986 37.9929 1.82494 38.094 2.00396L38.9924 3.59478L54.8909 31.3975C54.9989 31.5866 55.1714 31.751 55.3911 31.8743C55.6107 31.9975 55.8698 32.0752 56.1421 32.0996C56.4145 32.1239 56.6906 32.0941 56.9428 32.013C57.1949 31.9319 57.4141 31.8025 57.5784 31.6377L86.9221 2.25005C87.0962 2.07595 87.2022 1.86892 87.2283 1.65217C87.2544 1.43541 87.1994 1.2175 87.0697 1.02285C86.9399 0.828191 86.7404 0.664484 86.4936 0.550068C86.2467 0.435653 85.9623 0.37505 85.6721 0.37505H39.5471ZM156.035 8.00982L139.91 36.2432C139.809 36.4215 139.768 36.6158 139.791 36.8088C139.815 37.0018 139.901 37.1875 140.044 37.3492C140.186 37.5109 140.38 37.6435 140.608 37.7353C140.835 37.8271 141.089 37.8751 141.348 37.875H180.801C181.08 37.8751 181.353 37.8194 181.593 37.7135C181.834 37.6077 182.032 37.4556 182.167 37.273C182.303 37.0904 182.37 36.884 182.364 36.6751C182.357 36.4663 182.276 36.2625 182.129 36.085L158.797 7.85454C158.646 7.67279 158.432 7.52548 158.178 7.42858C157.923 7.33169 157.638 7.28893 157.354 7.30493C157.069 7.32093 156.796 7.39509 156.563 7.51935C156.331 7.64362 156.148 7.81324 156.035 8.00982ZM25.2034 7.86626L1.87915 36.085C1.7322 36.2625 1.65119 36.4663 1.64453 36.6751C1.63786 36.884 1.70578 37.0904 1.84124 37.273C1.9767 37.4556 2.17478 37.6077 2.41496 37.7135C2.65514 37.8194 2.92869 37.8751 3.20728 37.875H42.6604C42.919 37.8748 43.1734 37.8265 43.4009 37.7343C43.6284 37.6422 43.8219 37.5092 43.964 37.3471C44.1061 37.1851 44.1923 36.9992 44.215 36.806C44.2377 36.6128 44.1961 36.4184 44.094 36.2403L27.9377 8.02153C27.8222 7.82985 27.64 7.66502 27.4102 7.54436C27.1805 7.42369 26.9116 7.35164 26.6319 7.33576C26.3523 7.31988 26.072 7.36075 25.8207 7.45409C25.5693 7.54744 25.3561 7.68981 25.2034 7.86626ZM145.621 0.37505H96.6174C96.476 0.374364 96.3372 0.403362 96.2166 0.458767C96.0961 0.514171 95.9985 0.593772 95.9351 0.688566C95.8717 0.783361 95.845 0.889568 95.8579 0.995179C95.8707 1.10079 95.9228 1.20159 96.0081 1.28618L127.227 32.4756C127.306 32.5558 127.413 32.6187 127.535 32.6581C127.658 32.6975 127.792 32.712 127.924 32.7001C128.057 32.6883 128.182 32.6504 128.289 32.5904C128.396 32.5304 128.479 32.4504 128.531 32.3584L144.969 3.59771L146.297 1.15435C146.344 1.07048 146.363 0.979353 146.352 0.888773C146.342 0.798193 146.303 0.710858 146.237 0.634249C146.172 0.557641 146.083 0.494042 145.978 0.4489C145.872 0.403757 145.754 0.378417 145.633 0.37505H145.621ZM85.3596 122.25L50.426 47.9854C50.3235 47.7697 50.1343 47.5832 49.8845 47.4515C49.6348 47.3199 49.3368 47.2495 49.0315 47.25H2.03931C1.76709 47.2495 1.50013 47.3062 1.26884 47.4139C1.03755 47.5216 0.851234 47.6758 0.731125 47.859C0.611016 48.0422 0.561942 48.2471 0.589494 48.4502C0.617047 48.6533 0.720118 48.8465 0.886963 49.0079L85.262 130.983C85.5476 131.261 85.9551 131.453 86.412 131.527C86.869 131.6 87.3459 131.55 87.758 131.385C88.1726 131.221 88.495 130.951 88.6664 130.624C88.8377 130.297 88.8467 129.935 88.6916 129.604L85.3596 122.25ZM181.961 47.25H134.969C134.665 47.25 134.369 47.3207 134.121 47.4525C133.874 47.5842 133.687 47.7704 133.586 47.9854L95.2268 129.478C95.0657 129.82 95.0724 130.194 95.2456 130.532C95.4188 130.871 95.7473 131.153 96.1721 131.326C96.597 131.499 97.0899 131.553 97.5628 131.478C98.0357 131.403 98.4579 131.205 98.7541 130.919L183.114 49.0079C183.28 48.8465 183.383 48.6533 183.411 48.4502C183.439 48.2471 183.389 48.0422 183.269 47.859C183.149 47.6758 182.963 47.5216 182.732 47.4139C182.5 47.3062 182.233 47.2495 181.961 47.25ZM93.2502 14.1241L115.125 36C115.299 36.1742 115.405 36.3812 115.431 36.5979C115.457 36.8147 115.403 37.0326 115.273 37.2272C115.143 37.4219 114.944 37.5856 114.697 37.7C114.45 37.8144 114.165 37.875 113.875 37.875H70.1252C69.8351 37.875 69.5506 37.8144 69.3038 37.7C69.0569 37.5856 68.8575 37.4219 68.7277 37.2272C68.5979 37.0326 68.543 36.8147 68.5691 36.5979C68.5951 36.3812 68.7011 36.1742 68.8752 36L90.7502 14.1241C90.8958 13.9785 91.0845 13.8604 91.3015 13.779C91.5184 13.6977 91.7577 13.6553 92.0002 13.6553C92.2428 13.6553 92.482 13.6977 92.699 13.779C92.916 13.8604 93.1047 13.9785 93.2502 14.1241ZM90.5159 105.035L64.0706 48.8116C63.9875 48.6349 63.9621 48.4459 63.9966 48.2603C64.031 48.0748 64.1243 47.8981 64.2685 47.7452C64.4127 47.5923 64.6038 47.4675 64.8255 47.3813C65.0473 47.2952 65.2934 47.2502 65.5432 47.25H118.457C118.707 47.2502 118.953 47.2952 119.175 47.3813C119.397 47.4675 119.588 47.5923 119.732 47.7452C119.876 47.8981 119.969 48.0748 120.004 48.2603C120.038 48.4459 120.013 48.6349 119.93 48.8116L93.4729 105.035C93.365 105.263 93.1655 105.461 92.9018 105.601C92.638 105.74 92.3231 105.815 92.0002 105.815C91.6774 105.815 91.3624 105.74 91.0987 105.601C90.835 105.461 90.6355 105.263 90.5276 105.035H90.5159Z" fill="url(#paint0_linear_52_138)"/>
<defs>
<linearGradient id="paint0_linear_52_138" x1="92.0002" y1="0.375" x2="92.0002" y2="131.56" gradientUnits="userSpaceOnUse">
<stop stop-color="#F09E3E"/>
<stop offset="1" stop-color="#FFD94F"/>
</linearGradient>
</defs>
</svg>
