<svg width="176" height="41" viewBox="0 0 176 41" fill="none" xmlns="http://www.w3.org/2000/svg">
<path d="M56.6353 5.10963C56.6353 6.34126 56.2576 7.32766 55.5136 8.06332C54.6581 8.93541 53.5439 9.37422 52.1786 9.37422C50.8737 9.37422 49.7595 8.92804 48.8455 8.04857C47.9297 7.15619 47.4727 6.06101 47.4727 4.7501C47.4727 3.4392 47.9297 2.34401 48.8455 1.45901C49.7595 0.572165 50.8737 0.125976 52.1786 0.125976C52.8282 0.125976 53.4476 0.256883 54.0387 0.500258C54.6279 0.745476 55.1076 1.07735 55.455 1.48666L54.6657 2.26473C54.0595 1.56595 53.2342 1.22117 52.1786 1.22117C51.2268 1.22117 50.4016 1.54566 49.701 2.20019C49.0079 2.85657 48.6605 3.70654 48.6605 4.7501C48.6605 5.79366 49.0079 6.65101 49.701 7.30738C50.4016 7.95454 51.2268 8.28641 52.1786 8.28641C53.1889 8.28641 54.0387 7.95454 54.7091 7.30001C55.151 6.86672 55.4022 6.26935 55.4683 5.50604L52.1786 5.50604L52.1786 4.44035L56.5673 4.44035C56.6202 4.67082 56.6353 4.89391 56.6353 5.10963V5.10963Z" fill="white" stroke="white" stroke-width="0.16" stroke-miterlimit="10"/>
<path d="M63.5981 1.41458L59.4756 1.41458L59.4756 4.21708L63.1921 4.21708L63.1921 5.28277L59.4756 5.28277L59.4756 8.08527L63.5981 8.08527L63.5981 9.17124L58.3086 9.17124L58.3086 0.328613L63.5981 0.328613L63.5981 1.41458Z" fill="white" stroke="white" stroke-width="0.16" stroke-miterlimit="10"/>
<path d="M68.5121 9.17124L67.345 9.17124L67.345 1.41458L64.8164 1.41458L64.8164 0.328613L71.0425 0.328613L71.0425 1.41458L68.5121 1.41458L68.5121 9.17124V9.17124Z" fill="white" stroke="white" stroke-width="0.16" stroke-miterlimit="10"/>
<path d="M75.5479 9.17124L75.5479 0.328613L76.713 0.328613L76.713 9.17124L75.5479 9.17124Z" fill="white" stroke="white" stroke-width="0.16" stroke-miterlimit="10"/>
<path d="M81.8783 9.17124L80.7207 9.17124L80.7207 1.41458L78.1826 1.41458L78.1826 0.328613L84.4163 0.328613L84.4163 1.41458L81.8783 1.41458L81.8783 9.17124Z" fill="white" stroke="white" stroke-width="0.16" stroke-miterlimit="10"/>
<path d="M96.2041 8.03382C95.3108 8.92804 94.2042 9.37422 92.8842 9.37422C91.5566 9.37422 90.45 8.92804 89.5568 8.03382C88.6655 7.14144 88.2217 6.04626 88.2217 4.7501C88.2217 3.45395 88.6655 2.35876 89.5568 1.46638C90.45 0.572164 91.5566 0.125977 92.8842 0.125976C94.1967 0.125976 95.3033 0.572164 96.1965 1.47376C97.0954 2.37351 97.5392 3.46132 97.5392 4.7501C97.5392 6.04626 97.0954 7.14144 96.2041 8.03382ZM90.4198 7.29263C91.0921 7.95454 91.9098 8.28641 92.8842 8.28641C93.8511 8.28641 94.6763 7.95454 95.3411 7.29263C96.0114 6.63072 96.3514 5.78076 96.3514 4.7501C96.3514 3.71944 96.0114 2.86948 95.3411 2.20757C94.6763 1.54566 93.8511 1.21379 92.8842 1.21379C91.9098 1.21379 91.0921 1.54566 90.4198 2.20757C89.7494 2.86948 89.4095 3.71945 89.4095 4.7501C89.4095 5.78076 89.7494 6.63073 90.4198 7.29263V7.29263Z" fill="white" stroke="white" stroke-width="0.16" stroke-miterlimit="10"/>
<path d="M99.1758 9.17124L99.1758 0.328613L100.592 0.328613L104.996 7.2058L105.047 7.2058L104.996 5.50586L104.996 0.328613L106.161 0.328613L106.161 9.17124L104.945 9.17124L100.333 1.9548L100.282 1.9548L100.333 3.66211L100.333 9.17124L99.1758 9.17124V9.17124Z" fill="white" stroke="white" stroke-width="0.16" stroke-miterlimit="10"/>
<path d="M87.9345 22.085C84.3861 22.085 81.4874 24.7216 81.4874 28.3593C81.4874 31.9675 84.3861 34.6317 87.9345 34.6317C91.4904 34.6317 94.3891 31.9675 94.3891 28.3593C94.3891 24.7216 91.4904 22.085 87.9345 22.085ZM87.9345 32.1611C85.9875 32.1611 84.3125 30.5921 84.3125 28.3593C84.3125 26.097 85.9875 24.5557 87.9345 24.5557C89.8815 24.5557 91.564 26.097 91.564 28.3593C91.564 30.5921 89.8815 32.1611 87.9345 32.1611V32.1611ZM73.8676 22.085C70.3117 22.085 67.4205 24.7216 67.4205 28.3593C67.4205 31.9675 70.3117 34.6317 73.8676 34.6317C77.4216 34.6317 80.3147 31.9675 80.3147 28.3593C80.3147 24.7216 77.4216 22.085 73.8676 22.085ZM73.8676 32.1611C71.9187 32.1611 70.2381 30.5921 70.2381 28.3593C70.2381 26.097 71.9187 24.5557 73.8676 24.5557C75.8146 24.5557 77.4896 26.097 77.4896 28.3593C77.4896 30.5921 75.8146 32.1611 73.8676 32.1611ZM57.1286 24.0081L57.1286 26.6741L63.6493 26.6741C63.4586 28.1639 62.9487 29.2591 62.1669 30.0224C61.2152 30.9443 59.7327 31.9675 57.1286 31.9675C53.1157 31.9675 49.9734 28.8055 49.9734 24.8875C49.9734 20.9696 53.1157 17.8075 57.1286 17.8075C59.2984 17.8075 60.8771 18.6354 62.0423 19.7084L63.9666 17.8297C62.3369 16.3104 60.169 15.1433 57.1286 15.1433C51.6257 15.1433 47.001 19.5148 47.001 24.8875C47.001 30.2602 51.6257 34.6317 57.1286 34.6317C60.1029 34.6317 62.3369 33.6804 64.0931 31.8956C65.8928 30.1385 66.4536 27.6679 66.4536 25.673C66.4536 25.0535 66.4008 24.4838 66.3064 24.0081L57.1286 24.0081ZM125.576 26.0749C125.046 24.6718 123.409 22.085 120.074 22.085C116.769 22.085 114.017 24.6276 114.017 28.3593C114.017 31.8735 116.741 34.6317 120.391 34.6317C123.342 34.6317 125.046 32.8747 125.746 31.8514L123.556 30.4262C122.825 31.4697 121.83 32.1611 120.391 32.1611C118.961 32.1611 117.936 31.5213 117.279 30.2602L125.873 26.7884L125.576 26.0749V26.0749ZM116.814 28.1639C116.741 25.7449 118.738 24.5059 120.17 24.5059C121.292 24.5059 122.243 25.0535 122.561 25.8371L116.814 28.1639V28.1639ZM109.829 34.2501L112.654 34.2501L112.654 15.8126L109.829 15.8126L109.829 34.2501ZM105.202 23.4826L105.108 23.4826C104.473 22.7488 103.263 22.085 101.729 22.085C98.5116 22.085 95.5694 24.8433 95.5694 28.3796C95.5694 31.8956 98.5116 34.6317 101.729 34.6317C103.263 34.6317 104.473 33.9625 105.108 33.2065L105.202 33.2065L105.202 34.1063C105.202 36.505 103.89 37.7938 101.773 37.7938C100.047 37.7938 98.9761 36.5769 98.5342 35.5536L96.0774 36.5548C96.7855 38.2178 98.6607 40.2644 101.773 40.2644C105.085 40.2644 107.88 38.3617 107.88 33.732L107.88 22.4667L105.202 22.4667L105.202 23.4826V23.4826ZM101.971 32.1611C100.024 32.1611 98.3945 30.57 98.3945 28.3796C98.3945 26.1689 100.024 24.5557 101.971 24.5557C103.89 24.5557 105.402 26.1689 105.402 28.3796C105.402 30.57 103.89 32.1611 101.971 32.1611V32.1611ZM138.803 15.8126L132.046 15.8126L132.046 34.2501L134.864 34.2501L134.864 27.2641L138.803 27.2641C141.932 27.2641 145.001 25.0535 145.001 21.5374C145.001 18.0233 141.925 15.8126 138.803 15.8126V15.8126ZM138.877 24.6995L134.864 24.6995L134.864 18.3773L138.877 18.3773C140.98 18.3773 142.181 20.0827 142.181 21.5374C142.181 22.9645 140.98 24.6995 138.877 24.6995ZM156.294 22.05C154.258 22.05 152.141 22.9276 151.27 24.8728L153.771 25.8961C154.309 24.8728 155.298 24.5409 156.345 24.5409C157.806 24.5409 159.289 25.3983 159.311 26.912L159.311 27.1056C158.801 26.8179 157.71 26.392 156.367 26.392C153.674 26.392 150.93 27.8394 150.93 30.5405C150.93 33.0111 153.136 34.6022 155.616 34.6022C157.512 34.6022 158.558 33.767 159.215 32.7954L159.311 32.7954L159.311 34.2206L162.033 34.2206L162.033 27.148C162.033 23.879 159.532 22.05 156.294 22.05ZM155.954 32.1537C155.032 32.1537 153.748 31.7076 153.748 30.5921C153.748 29.165 155.349 28.6174 156.736 28.6174C157.976 28.6174 158.558 28.8848 159.311 29.2369C159.09 30.9442 157.585 32.1537 155.954 32.1537V32.1537ZM171.947 22.4538L168.708 30.4464L168.612 30.4464L165.264 22.4538L162.225 22.4538L167.256 33.6232L164.386 39.8385L167.33 39.8385L175.082 22.4538L171.947 22.4538V22.4538ZM146.549 34.2501L149.374 34.2501L149.374 15.8126L146.549 15.8126L146.549 34.2501Z" fill="white"/>
<path d="M0.765057 1.11967C0.321277 1.57324 0.0644525 2.27939 0.0644525 3.19389L0.0644531 35.8135C0.0644531 36.728 0.321278 37.4342 0.765058 37.8877L0.874587 37.9873L19.5964 19.7157L19.5964 19.2843L0.874587 1.01274L0.765057 1.11967Z" fill="url(#paint0_linear_0_1)"/>
<path d="M25.8294 25.8093L19.5957 19.7157L19.5957 19.2843L25.837 13.1907L25.9767 13.27L33.368 17.376C35.4774 18.5413 35.4774 20.4588 33.368 21.6314L25.9767 25.73L25.8294 25.8093V25.8093Z" fill="url(#paint1_linear_0_1)"/>
<path d="M25.977 25.7301L19.596 19.5001L0.764648 37.8878C1.46525 38.6069 2.60775 38.6936 3.90699 37.9745L25.977 25.7301" fill="url(#paint2_linear_0_1)"/>
<path d="M25.977 13.27L3.90699 1.02563C2.60775 0.313943 1.46525 0.400597 0.764648 1.11966L19.596 19.5L25.977 13.27Z" fill="url(#paint3_linear_0_1)"/>
<defs>
<linearGradient id="paint0_linear_0_1" x1="17.9342" y1="36.1532" x2="-6.81278" y2="10.8066" gradientUnits="userSpaceOnUse">
<stop stop-color="#00A0FF"/>
<stop offset="0.0066" stop-color="#00A1FF"/>
<stop offset="0.2601" stop-color="#00BEFF"/>
<stop offset="0.5122" stop-color="#00D2FF"/>
<stop offset="0.7604" stop-color="#00DFFF"/>
<stop offset="1" stop-color="#00E3FF"/>
</linearGradient>
<linearGradient id="paint1_linear_0_1" x1="36.1147" y1="19.4979" x2="-0.440496" y2="19.4979" gradientUnits="userSpaceOnUse">
<stop stop-color="#FFE000"/>
<stop offset="0.4087" stop-color="#FFBD00"/>
<stop offset="0.7754" stop-color="#FFA500"/>
<stop offset="1" stop-color="#FF9C00"/>
</linearGradient>
<linearGradient id="paint2_linear_0_1" x1="22.5072" y1="16.1134" x2="-11.0516" y2="-18.2587" gradientUnits="userSpaceOnUse">
<stop stop-color="#FF3A44"/>
<stop offset="1" stop-color="#C31162"/>
</linearGradient>
<linearGradient id="paint3_linear_0_1" x1="-3.9756" y1="48.7401" x2="11.0099" y2="33.3916" gradientUnits="userSpaceOnUse">
<stop stop-color="#32A071"/>
<stop offset="0.0685" stop-color="#2DA771"/>
<stop offset="0.4762" stop-color="#15CF74"/>
<stop offset="0.8009" stop-color="#06E775"/>
<stop offset="1" stop-color="#00F076"/>
</linearGradient>
</defs>
</svg>
