<svg width="23" height="23" viewBox="0 0 23 23" fill="none" xmlns="http://www.w3.org/2000/svg">
<path fill-rule="evenodd" clip-rule="evenodd" d="M16.2321 6.27559C15.0208 5.14317 13.4042 4.52625 11.7317 4.5516C8.67106 4.5516 6.07169 6.57558 5.14487 9.30099C4.65345 10.7292 4.65345 12.2758 5.14487 13.704H5.14917C6.08029 16.4252 8.67536 18.4492 11.736 18.4492C13.3159 18.4492 14.6722 18.0531 15.7234 17.3534V17.3506C16.9606 16.5477 17.8055 15.2843 18.0685 13.8561H11.7317V9.42783H22.7974C22.9353 10.1969 23 10.9828 23 11.7645C23 15.2622 21.7248 18.2193 19.506 20.2221L19.5083 20.2239C17.5641 21.9817 14.8958 23 11.7317 23C7.29592 23 3.23951 20.5492 1.24795 16.666C-0.415987 13.4167 -0.415983 9.58838 1.24796 6.339C3.23952 2.45157 7.29592 0.000774945 11.7317 0.000774945C14.6457 -0.0330288 17.4607 1.04024 19.5815 2.9924L16.2321 6.27559Z" fill="#3C6BB4"/>
</svg>
