<svg width="166" height="44" viewBox="0 0 166 44" fill="none" xmlns="http://www.w3.org/2000/svg">
<path d="M26.578 20.1815C26.5341 15.4276 30.5703 13.1148 30.7549 13.0071C28.469 9.75766 24.926 9.31369 23.6809 9.27829C20.7052 8.97296 17.8187 11.0144 16.3029 11.0144C14.7568 11.0144 12.4225 9.30779 9.90668 9.35794C6.66924 9.40661 3.64058 11.2341 1.9795 14.072C-1.44855 19.8585 1.10812 28.3618 4.39245 33.0391C6.03537 35.3297 7.95514 37.8874 10.4679 37.7974C12.9263 37.6986 13.8446 36.2693 16.8112 36.2693C19.7506 36.2693 20.6129 37.7974 23.1756 37.7399C25.814 37.6986 27.4751 35.4389 29.0605 33.1276C30.9591 30.5021 31.7216 27.9164 31.7518 27.7836C31.6898 27.763 26.6279 25.8794 26.578 20.1815Z" fill="white"/>
<path d="M21.7369 6.20144C23.0591 4.58926 23.9638 2.39594 23.7127 0.170166C21.799 0.252766 19.4057 1.46079 18.0275 3.03757C16.8082 4.42702 15.7189 6.70441 16.0003 8.84611C18.15 9.00246 20.3572 7.78854 21.7369 6.20144Z" fill="white"/>
<path d="M62.1557 37.4684L58.7201 37.4684L56.8382 31.7026L50.2967 31.7026L48.504 37.4684L45.1592 37.4684L51.6401 17.8391L55.643 17.8391L62.1557 37.4684ZM56.2708 29.2836L54.5689 24.158C54.3889 23.6344 54.0515 22.4013 53.5538 20.4602L53.4933 20.4602C53.2951 21.295 52.9759 22.5281 52.5372 24.158L50.8655 29.2836L56.2708 29.2836V29.2836Z" fill="white"/>
<path d="M78.8228 30.2173C78.8228 32.6245 78.1556 34.5272 76.8213 35.924C75.6262 37.1675 74.1421 37.7884 72.3706 37.7884C70.4584 37.7884 69.0847 37.1188 68.2481 35.7795L68.1876 35.7795L68.1876 43.2356L64.9623 43.2356L64.9623 27.9738C64.9623 26.4604 64.9214 24.9073 64.8428 23.3143L67.6793 23.3143L67.8593 25.5577L67.9199 25.5577C68.9955 23.8674 70.6278 23.0237 72.8184 23.0237C74.5309 23.0237 75.9605 23.683 77.1042 25.0031C78.2509 26.3247 78.8228 28.0623 78.8228 30.2173ZM75.5369 30.3323C75.5369 28.9547 75.2192 27.8189 74.5808 26.9251C73.8834 25.9929 72.9469 25.5268 71.773 25.5268C70.9773 25.5268 70.2541 25.7864 69.6082 26.2982C68.9607 26.8144 68.5371 27.4885 68.3389 28.3234C68.2391 28.7128 68.1891 29.0314 68.1891 29.2821L68.1891 31.6421C68.1891 32.6717 68.5129 33.5404 69.1604 34.2499C69.8079 34.9594 70.649 35.3134 71.6837 35.3134C72.8985 35.3134 73.8441 34.8561 74.5203 33.9446C75.198 33.0316 75.5369 31.828 75.5369 30.3323Z" fill="white"/>
<path d="M95.5195 30.2173C95.5195 32.6245 94.8523 34.5272 93.5165 35.924C92.3229 37.1675 90.8388 37.7884 89.0673 37.7884C87.1551 37.7884 85.7815 37.1188 84.9464 35.7795L84.8859 35.7795L84.8859 43.2356L81.6605 43.2356L81.6605 27.9738C81.6605 26.4604 81.6197 24.9073 81.541 23.3143L84.3776 23.3143L84.5576 25.5577L84.6181 25.5577C85.6922 23.8674 87.3245 23.0237 89.5166 23.0237C91.2276 23.0237 92.6572 23.683 93.8039 25.0031C94.9461 26.3247 95.5195 28.0623 95.5195 30.2173ZM92.2336 30.3323C92.2336 28.9547 91.9144 27.8189 91.276 26.9251C90.5786 25.9929 89.6452 25.5268 88.4697 25.5268C87.6725 25.5268 86.9509 25.7864 86.3034 26.2982C85.6559 26.8144 85.2338 27.4885 85.0356 28.3234C84.9373 28.7128 84.8859 29.0314 84.8859 29.2821L84.8859 31.6421C84.8859 32.6717 85.2096 33.5404 85.8541 34.2499C86.5016 34.9579 87.3427 35.3134 88.3805 35.3134C89.5953 35.3134 90.5408 34.8561 91.217 33.9446C91.8948 33.0316 92.2336 31.828 92.2336 30.3323Z" fill="white"/>
<path d="M114.188 31.9637C114.188 33.6334 113.594 34.9919 112.4 36.0406C111.088 37.1867 109.262 37.759 106.916 37.759C104.75 37.759 103.013 37.3519 101.698 36.5362L102.446 33.9152C103.862 34.75 105.415 35.1689 107.108 35.1689C108.323 35.1689 109.268 34.9005 109.948 34.3665C110.624 33.8326 110.961 33.1157 110.961 32.2219C110.961 31.4254 110.683 30.7542 110.125 30.21C109.569 29.6657 108.642 29.1598 107.347 28.6922C103.822 27.4104 102.061 25.5327 102.061 23.0636C102.061 21.4499 102.679 20.1269 103.915 19.0973C105.146 18.0663 106.789 17.5515 108.843 17.5515C110.675 17.5515 112.197 17.8627 113.412 18.4837L112.606 21.0473C111.471 20.4455 110.188 20.1446 108.753 20.1446C107.618 20.1446 106.731 20.4174 106.096 20.9602C105.559 21.4455 105.29 22.037 105.29 22.7376C105.29 23.5135 105.597 24.1551 106.214 24.6595C106.751 25.1256 107.727 25.6301 109.143 26.1744C110.875 26.8543 112.147 27.6494 112.966 28.5609C113.781 29.4695 114.188 30.6067 114.188 31.9637Z" fill="white"/>
<path d="M124.852 25.6743L121.297 25.6743L121.297 32.5463C121.297 34.2942 121.923 35.1674 123.178 35.1674C123.755 35.1674 124.233 35.1187 124.611 35.0214L124.7 37.4094C124.065 37.641 123.228 37.7575 122.192 37.7575C120.918 37.7575 119.923 37.3784 119.204 36.6218C118.489 35.8636 118.129 34.5922 118.129 32.8059L118.129 25.6714L116.011 25.6714L116.011 23.3114L118.129 23.3114L118.129 20.7198L121.297 19.7876L121.297 23.3114L124.852 23.3114L124.852 25.6743Z" fill="white"/>
<path d="M140.892 30.2748C140.892 32.4504 140.253 34.2366 138.98 35.6334C137.644 37.0716 135.871 37.7884 133.661 37.7884C131.531 37.7884 129.835 37.0996 128.57 35.7219C127.305 34.3443 126.673 32.6053 126.673 30.5093C126.673 28.316 127.323 26.5194 128.629 25.1226C129.931 23.7243 131.689 23.0251 133.9 23.0251C136.03 23.0251 137.744 23.714 139.037 25.0931C140.275 26.4309 140.892 28.1581 140.892 30.2748ZM137.545 30.3765C137.545 29.0712 137.26 27.9516 136.68 27.018C136.004 25.8881 135.037 25.3247 133.785 25.3247C132.488 25.3247 131.503 25.8896 130.827 27.018C130.248 27.9531 129.962 29.0903 129.962 30.4355C129.962 31.7409 130.248 32.8604 130.827 33.7926C131.524 34.9225 132.499 35.4859 133.756 35.4859C134.987 35.4859 135.954 34.9107 136.651 33.7631C137.246 32.8118 137.545 31.6804 137.545 30.3765Z" fill="white"/>
<path d="M151.376 26.0799C151.057 26.0224 150.717 25.9929 150.36 25.9929C149.225 25.9929 148.348 26.4103 147.73 27.2466C147.193 27.9841 146.924 28.9163 146.924 30.0417L146.924 37.4684L143.7 37.4684L143.73 27.7717C143.73 26.1404 143.69 24.655 143.609 23.3157L146.419 23.3157L146.537 26.0238L146.626 26.0238C146.966 25.0931 147.503 24.3438 148.239 23.7818C148.957 23.2759 149.733 23.0237 150.57 23.0237C150.868 23.0237 151.137 23.0443 151.376 23.0812L151.376 26.0799Z" fill="white"/>
<path d="M165.801 29.7218C165.801 30.2853 165.763 30.7602 165.683 31.1482L156.007 31.1482C156.045 32.5465 156.512 33.6158 157.411 34.3533C158.226 35.0127 159.28 35.3431 160.575 35.3431C162.008 35.3431 163.315 35.1203 164.491 34.6734L164.996 36.8564C163.622 37.4405 162.001 37.7311 160.129 37.7311C157.878 37.7311 156.111 37.085 154.825 35.7944C153.542 34.5038 152.899 32.7707 152.899 30.5965C152.899 28.4622 153.497 26.6848 154.694 25.2673C155.946 23.754 157.639 22.9973 159.769 22.9973C161.861 22.9973 163.445 23.754 164.521 25.2673C165.373 26.4695 165.801 27.9563 165.801 29.7218ZM162.725 28.9062C162.746 27.974 162.536 27.1686 162.099 26.4886C161.541 25.614 160.683 25.1774 159.529 25.1774C158.474 25.1774 157.616 25.6036 156.961 26.4591C156.424 27.1391 156.105 27.9548 156.007 28.9047L162.725 28.9047L162.725 28.9062Z" fill="white"/>
<path d="M55.2041 5.76333C55.2041 7.4994 54.6701 8.80625 53.6036 9.68388C52.6157 10.4937 51.2118 10.8993 49.3934 10.8993C48.4917 10.8993 47.7202 10.8609 47.0742 10.7842L47.0742 1.2985C47.9169 1.16575 48.8246 1.0979 49.8049 1.0979C51.537 1.0979 52.8426 1.46518 53.7231 2.19973C54.7094 3.03015 55.2041 4.21753 55.2041 5.76333ZM53.5325 5.8061C53.5325 4.68068 53.2269 3.8178 52.6157 3.216C52.0045 2.61567 51.1119 2.31478 49.9365 2.31478C49.4372 2.31478 49.0121 2.34723 48.6597 2.41508L48.6597 9.62635C48.8548 9.65585 49.2118 9.66913 49.7307 9.66913C50.944 9.66913 51.8805 9.3402 52.54 8.68235C53.1996 8.0245 53.5325 7.06575 53.5325 5.8061Z" fill="white"/>
<path d="M64.0677 7.27964C64.0677 8.34902 63.7545 9.22517 63.1282 9.91252C62.4717 10.619 61.6018 10.9716 60.5156 10.9716C59.4687 10.9716 58.6352 10.6338 58.0134 9.95529C57.3931 9.27827 57.083 8.42424 57.083 7.39469C57.083 6.31794 57.4022 5.43442 58.0436 4.74854C58.6851 4.06267 59.5474 3.71899 60.6336 3.71899C61.6805 3.71899 62.5216 4.05677 63.1585 4.73379C63.7636 5.39164 64.0677 6.24124 64.0677 7.27964ZM62.4233 7.32979C62.4233 6.68817 62.2811 6.13799 61.9982 5.67927C61.6653 5.12467 61.1918 4.84737 60.5761 4.84737C59.9392 4.84737 59.4551 5.12467 59.1223 5.67927C58.8379 6.13799 58.6972 6.69702 58.6972 7.35782C58.6972 7.99944 58.8394 8.54962 59.1223 9.00834C59.4657 9.56294 59.9438 9.84024 60.561 9.84024C61.1661 9.84024 61.6411 9.55852 61.983 8.99359C62.2765 8.52602 62.4233 7.97142 62.4233 7.32979Z" fill="white"/>
<path d="M75.9527 3.8606L73.7213 10.8137L72.269 10.8137L71.3446 7.79442C71.1101 7.0407 70.9195 6.2914 70.7713 5.548L70.7425 5.548C70.6049 6.31205 70.4142 7.05987 70.1692 7.79442L69.1873 10.8137L67.7184 10.8137L65.6201 3.8606L67.2494 3.8606L68.0558 7.16607C68.2509 7.94782 68.4113 8.6927 68.5399 9.39775L68.5686 9.39775C68.6866 8.8166 68.8818 8.07615 69.1571 7.18082L70.1692 3.86207L71.4611 3.86207L72.4308 7.11002C72.6653 7.9021 72.8559 8.66467 73.0027 9.39922L73.0465 9.39922C73.154 8.68385 73.3158 7.92127 73.5307 7.11002L74.396 3.86207L75.9527 3.86207L75.9527 3.8606Z" fill="white"/>
<path d="M84.1719 10.8138L82.5864 10.8138L82.5864 6.83128C82.5864 5.60408 82.1084 4.99047 81.1492 4.99047C80.6788 4.99047 80.299 5.15863 80.004 5.4964C79.7121 5.83418 79.5638 6.23243 79.5638 6.6882L79.5638 10.8123L77.9784 10.8123L77.9784 5.84745C77.9784 5.2368 77.9587 4.57453 77.9209 3.85767L79.3142 3.85767L79.3883 4.94475L79.4322 4.94475C79.6168 4.60698 79.8921 4.3282 80.2537 4.10548C80.6833 3.84588 81.1644 3.7146 81.6908 3.7146C82.3565 3.7146 82.9102 3.92405 83.3504 4.34442C83.898 4.8592 84.1719 5.62768 84.1719 6.64838L84.1719 10.8138V10.8138Z" fill="white"/>
<path d="M88.5439 10.8137L86.96 10.8137L86.96 0.670166L88.5439 0.670166L88.5439 10.8137Z" fill="white"/>
<path d="M97.8773 7.27964C97.8773 8.34902 97.5641 9.22517 96.9378 9.91252C96.2812 10.619 95.4099 10.9716 94.3252 10.9716C93.2768 10.9716 92.4432 10.6338 91.823 9.95529C91.2027 9.27827 90.8926 8.42424 90.8926 7.39469C90.8926 6.31794 91.2118 5.43442 91.8532 4.74854C92.4947 4.06267 93.357 3.71899 94.4417 3.71899C95.49 3.71899 96.3297 4.05677 96.9681 4.73379C97.5732 5.39164 97.8773 6.24124 97.8773 7.27964ZM96.2313 7.32979C96.2313 6.68817 96.0891 6.13799 95.8062 5.67927C95.4749 5.12467 94.9999 4.84737 94.3857 4.84737C93.7473 4.84737 93.2632 5.12467 92.9319 5.67927C92.6474 6.13799 92.5068 6.69702 92.5068 7.35782C92.5068 7.99944 92.649 8.54962 92.9319 9.00834C93.2753 9.56294 93.7533 9.84024 94.3706 9.84024C94.9757 9.84024 95.4492 9.55852 95.7911 8.99359C96.0861 8.52602 96.2313 7.97142 96.2313 7.32979Z" fill="white"/>
<path d="M105.551 10.8137L104.127 10.8137L104.009 10.0128L103.965 10.0128C103.478 10.6515 102.784 10.9716 101.882 10.9716C101.209 10.9716 100.664 10.7606 100.255 10.3417C99.8824 9.96119 99.6963 9.48772 99.6963 8.92574C99.6963 8.07614 100.059 7.42862 100.79 6.98022C101.519 6.53182 102.545 6.31204 103.866 6.32237L103.866 6.19257C103.866 5.27659 103.372 4.81934 102.385 4.81934C101.681 4.81934 101.061 4.99192 100.525 5.33412L100.203 4.31932C100.866 3.91959 101.684 3.71899 102.649 3.71899C104.513 3.71899 105.448 4.67774 105.448 6.59524L105.448 9.15584C105.448 9.85057 105.483 10.4037 105.551 10.8137ZM103.905 8.42424L103.905 7.35192C102.156 7.32242 101.282 7.78999 101.282 8.75317C101.282 9.11602 101.382 9.38742 101.586 9.56884C101.79 9.75027 102.05 9.84024 102.36 9.84024C102.708 9.84024 103.034 9.73257 103.33 9.51869C103.628 9.30334 103.811 9.03047 103.879 8.69564C103.896 8.62042 103.905 8.52897 103.905 8.42424Z" fill="white"/>
<path d="M114.56 10.8137L113.153 10.8137L113.079 9.69716L113.035 9.69716C112.585 10.5468 111.82 10.9716 110.744 10.9716C109.885 10.9716 109.169 10.6426 108.602 9.98479C108.035 9.32694 107.752 8.47292 107.752 7.42419C107.752 6.29877 108.059 5.38721 108.676 4.69101C109.274 4.04201 110.006 3.71752 110.877 3.71752C111.835 3.71752 112.505 4.03169 112.886 4.66152L112.917 4.66152L112.917 0.670166L114.504 0.670166L114.504 8.94049C114.504 9.61752 114.522 10.2414 114.56 10.8137ZM112.917 7.88144L112.917 6.72209C112.917 6.52149 112.902 6.35924 112.873 6.23534C112.784 5.86364 112.591 5.55094 112.299 5.29872C112.004 5.04649 111.649 4.91964 111.239 4.91964C110.647 4.91964 110.185 5.14827 109.844 5.60699C109.507 6.06572 109.336 6.65129 109.336 7.36666C109.336 8.05401 109.498 8.61157 109.823 9.04079C110.166 9.49804 110.629 9.72667 111.209 9.72667C111.729 9.72667 112.145 9.53639 112.461 9.15436C112.767 8.80184 112.917 8.37704 112.917 7.88144Z" fill="white"/>
<path d="M128.119 7.27964C128.119 8.34902 127.806 9.22517 127.18 9.91252C126.523 10.619 125.655 10.9716 124.567 10.9716C123.522 10.9716 122.688 10.6338 122.065 9.95529C121.445 9.27827 121.135 8.42424 121.135 7.39469C121.135 6.31794 121.454 5.43442 122.095 4.74854C122.737 4.06267 123.599 3.71899 124.687 3.71899C125.732 3.71899 126.575 4.05677 127.21 4.73379C127.815 5.39164 128.119 6.24124 128.119 7.27964ZM126.477 7.32979C126.477 6.68817 126.334 6.13799 126.051 5.67927C125.717 5.12467 125.245 4.84737 124.628 4.84737C123.992 4.84737 123.508 5.12467 123.174 5.67927C122.89 6.13799 122.749 6.69702 122.749 7.35782C122.749 7.99944 122.891 8.54962 123.174 9.00834C123.517 9.56294 123.996 9.84024 124.613 9.84024C125.218 9.84024 125.694 9.55852 126.036 8.99359C126.328 8.52602 126.477 7.97142 126.477 7.32979Z" fill="white"/>
<path d="M136.644 10.8138L135.06 10.8138L135.06 6.83128C135.06 5.60408 134.582 4.99047 133.621 4.99047C133.151 4.99047 132.771 5.15863 132.478 5.4964C132.184 5.83418 132.037 6.23243 132.037 6.6882L132.037 10.8123L130.451 10.8123L130.451 5.84745C130.451 5.2368 130.432 4.57453 130.395 3.85767L131.786 3.85767L131.86 4.94475L131.904 4.94475C132.09 4.60698 132.366 4.3282 132.726 4.10548C133.157 3.84588 133.637 3.7146 134.164 3.7146C134.829 3.7146 135.382 3.92405 135.823 4.34442C136.372 4.8592 136.644 5.62768 136.644 6.64838L136.644 10.8138V10.8138Z" fill="white"/>
<path d="M147.314 5.01843L145.568 5.01843L145.568 8.39618C145.568 9.25463 145.878 9.68386 146.493 9.68386C146.777 9.68386 147.013 9.66026 147.199 9.61158L147.24 10.7842C146.927 10.8993 146.515 10.9568 146.008 10.9568C145.382 10.9568 144.895 10.7709 144.543 10.3992C144.189 10.0275 144.013 9.40213 144.013 8.52451L144.013 5.01843L142.971 5.01843L142.971 3.86056L144.013 3.86056L144.013 2.58616L145.567 2.12891L145.567 3.85908L147.312 3.85908L147.312 5.01843L147.314 5.01843Z" fill="white"/>
<path d="M155.707 10.8137L154.12 10.8137L154.12 6.86074C154.12 5.61437 153.642 4.99044 152.685 4.99044C151.949 4.99044 151.447 5.35182 151.172 6.07457C151.125 6.22649 151.098 6.41234 151.098 6.63064L151.098 10.8123L149.514 10.8123L149.514 0.670166L151.098 0.670166L151.098 4.86064L151.128 4.86064C151.627 4.09807 152.343 3.71752 153.27 3.71752C153.927 3.71752 154.47 3.92697 154.901 4.34734C155.438 4.87097 155.707 5.64977 155.707 6.67932L155.707 10.8137V10.8137Z" fill="white"/>
<path d="M164.365 7.00833C164.365 7.28563 164.343 7.51868 164.306 7.70896L159.551 7.70896C159.572 8.39631 159.799 8.91993 160.239 9.28278C160.642 9.60728 161.16 9.76953 161.796 9.76953C162.499 9.76953 163.141 9.66038 163.719 9.44061L163.967 10.5144C163.291 10.8006 162.495 10.9436 161.573 10.9436C160.469 10.9436 159.599 10.6265 158.97 9.99226C158.338 9.35801 158.024 8.50694 158.024 7.43904C158.024 6.39031 158.316 5.51711 158.905 4.82091C159.519 4.07751 160.35 3.70581 161.398 3.70581C162.424 3.70581 163.203 4.07751 163.729 4.82091C164.154 5.41091 164.365 6.14103 164.365 7.00833ZM162.852 6.60861C162.864 6.14988 162.76 5.75459 162.545 5.42124C162.269 4.99201 161.85 4.77666 161.283 4.77666C160.766 4.77666 160.344 4.98611 160.021 5.40649C159.758 5.74131 159.602 6.14103 159.551 6.60861L162.852 6.60861Z" fill="white"/>
</svg>
