<svg width="500" height="500" viewBox="0 0 500 500" fill="none" xmlns="http://www.w3.org/2000/svg">
<g clip-path="url(#clip0_1_2561)">
<path d="M246.531 497.887H227.324V292.818H242.944C243.701 292.818 244.427 293.233 244.963 293.974C245.499 294.714 245.802 295.719 245.806 296.768L246.531 497.887Z" fill="#CCCCCC"/>
<path d="M229.118 498.973H22.8579V352.928H229.118V498.973Z" fill="white"/>
<path d="M147.821 498.43H23.2495V353.472H228.727V386.194C228.703 415.95 220.171 444.479 205.003 465.52C189.836 486.561 169.271 498.397 147.821 498.43Z" fill="#F2F2F2"/>
<path d="M243.402 298.643C243.299 298.915 243.218 299.203 243.163 299.501L236.05 337.532L228.336 357.8H23.6411V352.752L35.295 337.532L48.8899 301.458C49.4901 299.865 50.2782 298.424 51.2216 297.192C53.3741 294.382 56.2184 292.818 59.1741 292.818H240.872C241.365 292.818 241.85 292.995 242.279 293.331C242.709 293.668 243.069 294.153 243.323 294.739C243.578 295.325 243.719 295.992 243.733 296.676C243.747 297.36 243.633 298.038 243.402 298.643Z" fill="#F2F2F2"/>
<path d="M229.118 498.973H22.8579V352.928H229.118V498.973ZM24.4237 496.801H227.553V355.101H24.4237V496.801Z" fill="#E6E6E6"/>
<path d="M239.85 318.098L236.05 337.532H35.2954L41.7823 321.356L239.85 318.098Z" fill="#CCCCCC"/>
<path d="M63.3443 429.458H30.4644V431.982H63.3443V429.458Z" fill="white"/>
<path d="M63.3443 438.292H30.4644V440.816H63.3443V438.292Z" fill="white"/>
<path d="M63.3443 447.126H30.4644V449.651H63.3443V447.126Z" fill="white"/>
<path d="M43.2008 401.341C49.7326 401.341 55.0276 393.995 55.0276 384.934C55.0276 375.873 49.7326 368.528 43.2008 368.528C36.6691 368.528 31.374 375.873 31.374 384.934C31.374 393.995 36.6691 401.341 43.2008 401.341Z" fill="white"/>
<path d="M172.825 326.51H162.78V219.269H170.949C171.345 219.269 171.724 219.486 172.005 219.873C172.285 220.26 172.444 220.786 172.446 221.334L172.825 326.51Z" fill="#CCCCCC"/>
<path d="M163.719 327.078H55.8545V250.703H163.719V327.078Z" fill="white"/>
<path d="M121.204 326.794H56.0591V250.988H163.514V268.1C163.502 283.661 159.04 298.58 151.108 309.583C143.176 320.587 132.422 326.776 121.204 326.794Z" fill="#F2F2F2"/>
<path d="M171.189 222.315C171.134 222.457 171.092 222.608 171.063 222.763L167.344 242.652L163.309 253.251H56.2637V250.611L62.3581 242.652L69.4676 223.787C69.7815 222.954 70.1936 222.2 70.687 221.556C71.8127 220.087 73.3001 219.269 74.8458 219.269H169.865C170.123 219.269 170.377 219.361 170.601 219.537C170.826 219.713 171.014 219.967 171.147 220.273C171.28 220.58 171.354 220.929 171.361 221.286C171.369 221.644 171.309 221.998 171.189 222.315Z" fill="#F2F2F2"/>
<path d="M163.719 327.078H55.8545V250.703H163.719V327.078ZM56.6733 325.942H162.9V251.839H56.6733V325.942Z" fill="#E6E6E6"/>
<path d="M169.331 232.489L167.344 242.651H62.3584L65.7506 234.192L169.331 232.489Z" fill="#CCCCCC"/>
<path d="M77.0267 290.725H59.832V292.045H77.0267V290.725Z" fill="white"/>
<path d="M77.0267 295.345H59.832V296.665H77.0267V295.345Z" fill="white"/>
<path d="M77.0267 299.965H59.832V301.285H77.0267V299.965Z" fill="white"/>
<path d="M66.4925 276.021C69.9083 276.021 72.6773 272.179 72.6773 267.441C72.6773 262.702 69.9083 258.861 66.4925 258.861C63.0767 258.861 60.3076 262.702 60.3076 267.441C60.3076 272.179 63.0767 276.021 66.4925 276.021Z" fill="white"/>
<path d="M468.847 498.899L468.785 498.436C467.769 490.662 467.985 482.674 469.418 475.028C470.852 467.381 473.469 460.26 477.087 454.158C479.136 450.758 481.486 447.729 484.08 445.143L484.327 444.895L484.436 445.291C485.726 450.011 487.355 454.738 488.097 456.83L488.598 441.211L488.884 441.001C490.194 440.027 491.684 439.62 493.162 439.831C494.64 440.043 496.038 440.864 497.177 442.188C498.355 443.501 499.222 445.273 499.668 447.276C500.113 449.28 500.116 451.422 499.675 453.427C499.286 455.263 498.919 457.166 498.563 459.007C497.341 465.333 496.078 471.875 493.629 477.383C491.746 481.527 489.22 485.036 486.235 487.652C483.25 490.269 479.881 491.927 476.374 492.506L468.847 498.899Z" fill="#F2F2F2"/>
<path d="M500 498.708C500 498.878 499.976 499.046 499.93 499.203C499.883 499.36 499.815 499.503 499.728 499.623C499.641 499.743 499.538 499.838 499.425 499.903C499.312 499.968 499.191 500.001 499.068 500H0.931625C0.684543 500 0.447578 499.864 0.272865 499.622C0.0981516 499.379 0 499.05 0 498.708C0 498.365 0.0981516 498.036 0.272865 497.794C0.447578 497.551 0.684543 497.415 0.931625 497.415H499.068C499.191 497.415 499.312 497.448 499.425 497.513C499.538 497.577 499.641 497.673 499.728 497.793C499.814 497.913 499.883 498.055 499.93 498.213C499.976 498.37 500 498.538 500 498.708Z" fill="#CCCCCC"/>
<path d="M387.011 168.036L372.753 165.203C367.931 176.389 366.217 206.163 366.217 206.163L352.263 252.172C351.339 253.043 350.596 254.236 350.11 255.632C349.624 257.027 349.411 258.575 349.494 260.121C349.576 261.666 349.951 263.154 350.58 264.435C351.208 265.716 352.069 266.745 353.076 267.418C354.082 268.09 355.199 268.383 356.313 268.267C357.427 268.151 358.499 267.63 359.421 266.756C360.344 265.882 361.084 264.686 361.568 263.289C362.052 261.893 362.262 260.343 362.177 258.798L385.088 205.245L387.011 168.036Z" fill="#FFB8B8"/>
<path d="M384.742 113.123C386.949 113.597 389.053 114.741 390.905 116.471C392.758 118.202 394.312 120.477 395.458 123.136C396.605 125.795 397.315 128.772 397.537 131.854C397.76 134.937 397.49 138.05 396.747 140.971L393.721 152.868C393.721 152.868 392.074 188.691 385.793 198.803L366.518 196.383C366.518 196.383 370.042 178.31 367.337 169.565C365.68 164.21 365.772 145.714 367.404 130.667C367.71 127.935 368.402 125.313 369.439 122.952C370.477 120.59 371.84 118.536 373.45 116.907C375.06 115.277 376.887 114.104 378.824 113.455C380.762 112.806 382.773 112.693 384.742 113.123Z" fill="#E6E6E6"/>
<path d="M431.863 484.827L423.274 484.826L419.188 438.868L431.865 438.869L431.863 484.827Z" fill="#FFB6B6"/>
<path d="M432.165 497.256L405.753 497.255V496.791C405.754 493.009 406.837 489.382 408.765 486.708C410.693 484.033 413.307 482.531 416.034 482.531H416.034L420.859 477.453L429.86 482.531L432.166 482.531L432.165 497.256Z" fill="#2F2E41"/>
<path d="M394.522 427.869L386.588 432.432L370.123 392.152L381.833 385.416L394.522 427.869Z" fill="#FFB6B6"/>
<path d="M398.234 439.19L373.837 453.224L373.709 452.796C372.665 449.302 372.663 445.376 373.706 441.881C374.748 438.387 376.748 435.609 379.267 434.16L379.267 434.16L382.322 426.906L392.039 426.813L394.169 425.588L398.234 439.19Z" fill="#2F2E41"/>
<path d="M441.683 223.392L380.73 232.227L372.576 270.322L344.34 333.272L375.517 412.734L386.496 399.063L375.957 334.896L407.414 287.785L413.379 284.352L418.114 459.169L435.627 459.568L443.291 266.668C446.973 249.627 445.865 235.557 441.683 223.392Z" fill="#2F2E41"/>
<path d="M419.336 102.791L409.331 87.1633L393.522 89.6001L383.401 109.25C378.014 110.968 373.306 115.485 370.246 121.872C367.186 128.258 366.008 136.029 366.952 143.585C370.88 174.959 384.227 205.388 379.82 220.868C373.13 244.367 372.722 253.951 388.736 250.656C404.751 247.362 458.404 239.767 448.002 225.337C437.6 210.907 435.315 186.793 435.315 186.793L434.898 131.626C435.34 128.299 435.281 124.88 434.725 121.586C434.169 118.292 433.127 115.193 431.665 112.485C430.203 109.776 428.353 107.517 426.231 105.849C424.11 104.18 421.762 103.139 419.336 102.791L419.336 102.791Z" fill="#E6E6E6"/>
<path d="M399.785 83.1641C409.477 83.1641 417.333 72.2649 417.333 58.8201C417.333 45.3753 409.477 34.4761 399.785 34.4761C390.093 34.4761 382.236 45.3753 382.236 58.8201C382.236 72.2649 390.093 83.1641 399.785 83.1641Z" fill="#FFB8B8"/>
<path d="M421.407 57.3747C420.623 62.3071 419.21 67.0052 417.233 71.2468C416.708 72.6931 415.924 73.9279 414.957 74.8326C414.467 75.2688 413.882 75.4529 413.304 75.3527C412.726 75.2525 412.192 74.8745 411.795 74.2843L411.368 73.8018C412.205 73.0861 412.952 72.1861 413.581 71.1371C413.892 70.6106 414.108 69.9887 414.212 69.3231C414.315 68.6574 414.302 67.9673 414.174 67.3099C414.022 66.6616 413.696 66.1201 413.262 65.7991C412.829 65.478 412.323 65.4025 411.85 65.5883C410.822 66.1476 410.198 68.2092 409.123 67.8912C408.253 67.6279 408.071 66.0379 408.071 64.7877C408.103 58.252 405.826 48.9638 404.063 49.2489C402.283 49.384 400.499 49.0529 398.807 48.2729C397.112 47.4916 395.324 47.175 393.542 47.3408C393.416 47.3627 393.289 47.3957 393.155 47.4285C392.869 46.1868 392.476 44.9975 391.985 43.8865C392.04 45.2276 391.992 46.573 391.843 47.9001C390.425 48.7108 388.96 49.3527 387.463 49.8191C385.835 50.1372 382.254 56.8922 382.088 56.2013C381.802 54.9596 381.409 53.7703 380.918 52.6593C380.973 54.0004 380.926 55.3458 380.776 56.6729C380.768 56.7277 380.768 56.7716 380.76 56.8264C379.969 55.3679 379.487 53.5914 379.756 54.9512C377.108 46.639 378.135 40.6845 382.301 33.6771C383.113 32.1704 384.188 30.9743 385.424 30.2009C386.043 29.8237 386.721 29.6739 387.394 29.7661C388.067 29.8583 388.712 30.1893 389.265 30.7273C390.965 28.5662 393.049 27.0749 395.304 26.4077C397.558 25.7406 399.9 25.922 402.087 26.933C406.427 29.0276 409.771 30.2558 410.435 36.5722C414.024 35.7716 417.715 38.6009 419.692 42.8228C421.66 47.0557 422.063 52.429 421.407 57.3747Z" fill="#2F2E41"/>
<path d="M407.177 259.574H401.353V197.388H406.089C406.319 197.388 406.539 197.514 406.701 197.739C406.864 197.963 406.956 198.268 406.957 198.586L407.177 259.574Z" fill="#3F3D56"/>
<path d="M401.897 259.903H339.35V215.616H401.897V259.903Z" fill="white"/>
<path d="M377.244 259.739H339.469V215.781H401.778V225.704C401.771 234.727 399.184 243.378 394.584 249.759C389.985 256.139 383.749 259.728 377.244 259.739Z" fill="#9E616A"/>
<path d="M406.228 199.155C406.197 199.237 406.172 199.324 406.156 199.415L403.999 210.947L401.659 217.094H339.587V215.563L343.121 210.947L347.244 200.008C347.426 199.525 347.665 199.088 347.951 198.715C348.604 197.863 349.466 197.388 350.363 197.388H405.461C405.61 197.388 405.757 197.442 405.888 197.544C406.018 197.646 406.127 197.793 406.204 197.971C406.281 198.148 406.324 198.351 406.328 198.558C406.333 198.766 406.298 198.971 406.228 199.155Z" fill="#3F3D56"/>
<path d="M401.897 259.903H339.35V215.616H401.897V259.903ZM339.825 259.244H401.422V216.275H339.825V259.244Z" fill="#3F3D56"/>
<path d="M405.151 205.054L403.999 210.948H343.122L345.088 206.042L405.151 205.054Z" fill="#6C63FF"/>
<path d="M351.627 238.823H341.656V239.589H351.627V238.823Z" fill="white"/>
<path d="M351.627 241.502H341.656V242.268H351.627V241.502Z" fill="white"/>
<path d="M351.627 244.181H341.656V244.947H351.627V244.181Z" fill="white"/>
<path d="M345.519 230.297C347.499 230.297 349.105 228.07 349.105 225.322C349.105 222.574 347.499 220.347 345.519 220.347C343.538 220.347 341.932 222.574 341.932 225.322C341.932 228.07 343.538 230.297 345.519 230.297Z" fill="white"/>
<path d="M431.51 162.351L417.251 159.518C412.429 170.704 410.715 200.477 410.715 200.477L396.761 246.487C395.837 247.358 395.095 248.551 394.609 249.946C394.123 251.341 393.91 252.89 393.992 254.435C394.075 255.981 394.449 257.469 395.078 258.75C395.707 260.031 396.568 261.059 397.574 261.732C398.581 262.405 399.697 262.698 400.811 262.581C401.925 262.465 402.997 261.944 403.92 261.07C404.843 260.196 405.583 259.001 406.067 257.604C406.55 256.207 406.76 254.658 406.675 253.113L429.586 199.56L431.51 162.351Z" fill="#FFB8B8"/>
<path d="M423.782 107.437C425.989 107.912 428.093 109.055 429.945 110.785C431.798 112.516 433.352 114.792 434.499 117.45C435.645 120.109 436.355 123.086 436.577 126.168C436.8 129.251 436.53 132.364 435.787 135.285L432.761 147.183C432.761 147.183 436.573 183.005 430.291 193.117L411.017 190.697C411.017 190.697 414.541 172.624 411.835 163.879C410.178 158.524 410.27 140.028 411.903 124.981C413.15 113.492 415.505 105.659 423.782 107.437Z" fill="#E6E6E6"/>
<path d="M302.708 48.1656C295.742 52.9852 290.441 61.4465 287.972 71.688C285.503 81.9295 286.067 93.1122 289.541 102.776C296.776 122.9 322.92 157.222 343.779 162.408C334.807 124.614 347.283 86.1978 342.075 66.431C336.51 45.3095 317.215 38.1291 302.708 48.1656Z" fill="#F0483E"/>
<path d="M312.487 96.0276C317.774 96.0276 322.059 90.0822 322.059 82.7481C322.059 75.414 317.774 69.4685 312.487 69.4685C307.2 69.4685 302.914 75.414 302.914 82.7481C302.914 90.0822 307.2 96.0276 312.487 96.0276Z" fill="white"/>
<path d="M343.596 183.723C347.058 183.723 349.865 179.828 349.865 175.025C349.865 170.221 347.058 166.327 343.596 166.327C340.133 166.327 337.326 170.221 337.326 175.025C337.326 179.828 340.133 183.723 343.596 183.723Z" fill="#F0483E"/>
<path opacity="0.2" d="M315.404 68.7888C316.661 68.7282 317.914 69.0118 319.092 69.6235C320.27 70.2352 321.35 71.163 322.269 72.3537C323.188 73.5444 323.93 74.9748 324.45 76.5631C324.971 78.1514 325.261 79.8665 325.303 81.6103C325.346 83.3541 325.14 85.0925 324.698 86.726C324.257 88.3596 323.587 89.8563 322.728 91.1306C321.869 92.405 320.837 93.4319 319.691 94.1529C318.546 94.8738 317.31 95.2745 316.052 95.3322C318.183 94.233 319.962 92.1179 321.071 89.3655C322.18 86.6131 322.546 83.403 322.105 80.3099C321.664 77.2167 320.444 74.4423 318.662 72.4833C316.881 70.5243 314.656 69.5085 312.384 69.6177C313.352 69.1172 314.372 68.8373 315.404 68.7888Z" fill="#231F20"/>
<path opacity="0.2" d="M342.123 66.4389C347.331 86.2056 334.855 124.622 343.828 162.416C341.859 161.913 339.92 161.209 338.026 160.309C330.715 123.774 342.189 87.2664 337.157 68.1681C332.654 51.0748 319.158 43.114 306.485 46.0182C320.394 39.4377 337.023 47.0831 342.123 66.4389Z" fill="#231F20"/>
<path d="M48.2725 249.833C41.0613 249.592 34.0767 253.336 28.8552 260.24C23.6336 267.144 20.6029 276.642 20.4297 286.646C20.0692 307.477 30.761 351.304 46.2255 368.091C50.6824 331.742 72.9005 307.778 74.8095 288.457C76.8494 267.813 63.2891 250.333 48.2725 249.833Z" fill="#D1D3D4"/>
<path d="M45.479 296.34C50.3778 296.34 54.349 290.831 54.349 284.035C54.349 277.239 50.3778 271.73 45.479 271.73C40.5802 271.73 36.6089 277.239 36.6089 284.035C36.6089 290.831 40.5802 296.34 45.479 296.34Z" fill="white"/>
<path d="M42.1339 386.373C45.3425 386.373 47.9436 382.765 47.9436 378.314C47.9436 373.863 45.3425 370.254 42.1339 370.254C38.9253 370.254 36.3242 373.863 36.3242 378.314C36.3242 382.765 38.9253 386.373 42.1339 386.373Z" fill="#D1D3D4"/>
<path opacity="0.2" d="M52.229 274.356C54.3444 275.783 55.9644 278.318 56.7325 281.402C57.5007 284.487 57.3541 287.868 56.3251 290.803C55.8155 292.256 55.1047 293.556 54.2331 294.628C53.3615 295.7 52.3462 296.523 51.2452 297.051C49.0217 298.116 46.5842 297.913 44.4688 296.485C46.557 296.866 48.6746 296.203 50.4427 294.615C52.2107 293.027 53.5138 290.619 54.1186 287.82C54.7234 285.021 54.5905 282.015 53.7437 279.34C52.8969 276.665 51.3914 274.495 49.4967 273.219C50.4457 273.391 51.3684 273.775 52.229 274.356Z" fill="#231F20"/>
<path opacity="0.2" d="M74.8464 288.493C72.9374 307.813 50.7193 331.778 46.2625 368.126C44.807 366.531 43.4386 364.788 42.1685 362.913C47.5933 328.594 68.3946 305.591 70.2391 286.924C71.8899 270.217 63.323 255.584 52.0362 250.344C65.4837 253.316 76.7157 269.574 74.8464 288.493Z" fill="#231F20"/>
<path d="M151.457 89.5056C149.43 89.6896 147.535 90.9634 146.175 93.056C144.815 95.1485 144.097 97.8947 144.175 100.71C144.197 101.282 144.253 101.851 144.343 102.41L121.328 122.524L134.052 130.33L153.956 110.033C155.599 109.337 157.029 107.906 158.023 105.964C159.018 104.022 159.521 101.678 159.454 99.2976C159.407 97.9436 159.167 96.6158 158.75 95.3901C158.333 94.1644 157.746 93.0646 157.022 92.1537C156.298 91.2428 155.452 90.5386 154.532 90.0812C153.613 89.6238 152.637 89.4222 151.661 89.488C151.593 89.4926 151.525 89.4984 151.457 89.5056Z" fill="#FFB6B6"/>
<path d="M129.264 113.382L134.968 129.708L112.415 149.841C110.81 151.285 108.966 152.137 107.057 152.314C105.148 152.492 103.238 151.989 101.509 150.854C99.4064 149.458 97.688 147.152 96.6127 144.283C95.5373 141.414 95.1634 138.138 95.547 134.949L102.865 76.9923C103.356 72.9366 104.949 69.2962 107.316 66.8199C109.683 64.3436 112.644 63.2196 115.59 63.6791C117.025 63.8968 118.415 64.5044 119.681 65.4672C120.946 66.4301 122.063 67.7294 122.967 69.2909C123.87 70.8524 124.543 72.6455 124.948 74.5679C125.352 76.4902 125.479 78.5042 125.322 80.4949C125.31 80.6521 125.296 80.8091 125.28 80.9658C125.224 81.5226 125.147 82.075 125.049 82.6204L117.06 123.838L129.264 113.382Z" fill="#6C63FF"/>
<path d="M130.866 138.691H98.6133V183.434H130.866V138.691Z" fill="#FFB8B8"/>
<path d="M207.354 270.461L219.672 264.713L226.532 311.226L218.185 315.12L207.354 270.461Z" fill="#FFB6B6"/>
<path d="M186.478 266.887L198.696 260.742L206.334 307.021L198.055 311.183L186.478 266.887Z" fill="#FFB6B6"/>
<path d="M99.7702 195.123C93.3056 254.908 179.392 219.562 179.392 219.562L206.384 271.216L222.186 267.23C222.186 267.23 215.076 236.221 202.377 194.651C196.738 176.19 132.704 180.701 132.704 180.701L131.374 166.226L94.7422 165.23L99.7702 195.123Z" fill="#2F2E41"/>
<path d="M161.954 223.57L181.861 206.371C196.434 246.74 200.729 264.223 200.729 264.223L186.952 269.598L161.954 223.57Z" fill="#2F2E41"/>
<path d="M118.195 65.9838L111.703 54.4076L102.443 53.8506L101.519 64.7381L96.9301 67.6734C92.3484 91.8202 91.6408 117.067 94.8572 141.635C95.4721 142.438 95.9215 143.454 96.1589 144.579C96.3962 145.703 96.4131 146.895 96.2076 148.032L95.9101 149.677L95.9376 149.737C96.9139 151.874 97.2452 154.459 96.8599 156.932L94.6686 162.333C93.8822 164.276 93.4103 166.433 93.2856 168.654C93.1609 170.875 93.3865 173.107 93.9467 175.195C94.5068 177.283 95.3881 179.177 96.5292 180.744C97.6703 182.312 99.0439 183.516 100.554 184.273C114.024 191.046 126.651 193.568 135.992 174.562L138.93 108.33L118.195 65.9838Z" fill="#FF9A62"/>
<path d="M111.395 57.4817C120.851 57.4817 128.517 46.8473 128.517 33.7291C128.517 20.611 120.851 9.97656 111.395 9.97656C101.938 9.97656 94.2725 20.611 94.2725 33.7291C94.2725 46.8473 101.938 57.4817 111.395 57.4817Z" fill="#FFB8B8"/>
<path d="M102.799 5.09584C95.549 5.28906 89.799 14.6178 89.9557 25.9322C84.5907 33.698 83.291 71.895 87.7738 82.0565C95.9742 83.377 100.962 55.2327 108.154 59.3013L109.101 53.1592L111.249 61.1577C113.076 62.3266 114.89 63.6095 116.69 65.0066C117.984 56.7757 117.663 48.7749 114.186 41.8061C111.097 35.6151 118.614 28.2651 123.99 29.304L123.911 23.6178L125.261 29.2701C127.356 31.4061 129.674 30.6328 132.051 29.0891C135.906 1.29937 106.064 -6.30023 102.799 5.09584Z" fill="#2F2E41"/>
<path d="M214.391 322.988L219.879 321.993L220.181 314.628L223.367 321.361L237.923 318.723C238.62 318.597 239.271 318.165 239.779 317.489C240.287 316.814 240.626 315.931 240.746 314.969C240.867 314.007 240.763 313.018 240.449 312.144C240.135 311.27 239.629 310.558 239.003 310.112L226.33 301.082L225.646 293.816L213.516 297.044L214.391 322.988Z" fill="#2F2E41"/>
<path d="M199.896 323.054L204.874 319.7L203.481 312.581L208.039 317.569L221.244 308.674C221.877 308.247 222.395 307.552 222.723 306.688C223.05 305.824 223.17 304.838 223.065 303.872C222.96 302.907 222.636 302.014 222.139 301.323C221.642 300.632 220.999 300.179 220.303 300.031L206.222 297.032L203.914 290.439L193.145 298.829L199.896 323.054Z" fill="#2F2E41"/>
<path d="M124.738 164.661H130.843V99.4795H125.878C125.637 99.4795 125.407 99.6115 125.236 99.8469C125.066 100.082 124.969 100.402 124.968 100.735L124.738 164.661Z" fill="#CCCCCC"/>
<path d="M130.272 118.586H195.832V165.006H130.272V118.586Z" fill="white"/>
<path d="M130.396 129.159V118.758H195.708V164.833H156.113C149.295 164.823 142.758 161.061 137.937 154.373C133.116 147.685 130.404 138.617 130.396 129.159Z" fill="#F2F2F2"/>
<path d="M125.732 101.331C125.765 101.418 125.791 101.509 125.809 101.604L128.069 113.692L130.521 120.134H195.583V118.53L191.879 113.692L187.558 102.226C187.367 101.72 187.117 101.262 186.817 100.87C186.133 99.977 185.229 99.4797 184.289 99.4797H126.537C126.38 99.4797 126.226 99.536 126.089 99.6429C125.953 99.7499 125.838 99.904 125.757 100.09C125.677 100.277 125.632 100.489 125.627 100.706C125.623 100.924 125.659 101.139 125.732 101.331Z" fill="#F2F2F2"/>
<path d="M130.272 118.586H195.832V165.006H130.272V118.586ZM195.335 164.315H130.77V119.276H195.335L195.335 164.315Z" fill="#E6E6E6"/>
<path d="M126.861 107.514L128.069 113.692H191.879L189.817 108.55L126.861 107.514Z" fill="#CCCCCC"/>
<path d="M193.415 142.911H182.964V143.713H193.415V142.911Z" fill="white"/>
<path d="M193.415 145.719H182.964V146.521H193.415V145.719Z" fill="white"/>
<path d="M193.415 148.527H182.964V149.329H193.415V148.527Z" fill="white"/>
<path d="M189.366 133.974C191.442 133.974 193.125 131.639 193.125 128.759C193.125 125.879 191.442 123.544 189.366 123.544C187.29 123.544 185.607 125.879 185.607 128.759C185.607 131.639 187.29 133.974 189.366 133.974Z" fill="white"/>
<path d="M159.041 49.9635C163.46 49.8163 167.74 52.1101 170.939 56.3404C174.139 60.5707 175.996 66.3908 176.102 72.5205C176.323 85.2849 169.771 112.14 160.296 122.425C157.565 100.153 143.951 85.4689 142.781 73.6304C141.531 60.9806 149.84 50.27 159.041 49.9635Z" fill="#D1D3D4"/>
<path d="M160.753 78.4606C163.755 78.4606 166.189 75.085 166.189 70.9209C166.189 66.7568 163.755 63.3811 160.753 63.3811C157.752 63.3811 155.318 66.7568 155.318 70.9209C155.318 75.085 157.752 78.4606 160.753 78.4606Z" fill="white"/>
<path d="M162.803 133.628C164.769 133.628 166.363 131.417 166.363 128.689C166.363 125.962 164.769 123.751 162.803 123.751C160.837 123.751 159.243 125.962 159.243 128.689C159.243 131.417 160.837 133.628 162.803 133.628Z" fill="#D1D3D4"/>
<path opacity="0.2" d="M156.617 64.9897C155.975 65.4228 155.401 66.0271 154.928 66.768C154.454 67.5088 154.091 68.3719 153.858 69.3077C153.624 70.2435 153.527 71.2339 153.569 72.2222C153.612 73.2105 153.795 74.1775 154.107 75.0679C154.419 75.9582 154.855 76.7546 155.389 77.4114C155.923 78.0682 156.545 78.5727 157.22 78.896C157.894 79.2193 158.608 79.3551 159.321 79.2957C160.033 79.2363 160.73 78.9827 161.372 78.5496C160.093 78.7827 158.795 78.3765 157.712 77.4036C156.628 76.4308 155.83 74.9548 155.459 73.24C155.089 71.5251 155.17 69.6832 155.689 68.044C156.208 66.4049 157.13 65.0753 158.291 64.2935C157.71 64.3987 157.144 64.6338 156.617 64.9897Z" fill="#231F20"/>
<path opacity="0.2" d="M142.758 73.6522C143.928 85.4907 157.542 100.175 160.273 122.447C161.165 121.47 162.003 120.402 162.782 119.253C159.458 98.2242 146.712 84.1291 145.582 72.6909C144.57 62.4536 149.819 53.4873 156.735 50.2769C148.495 52.0976 141.613 62.0599 142.758 73.6522Z" fill="#231F20"/>
<path d="M149.359 112.661C147.334 112.453 145.33 113.349 143.773 115.16C142.217 116.97 141.232 119.552 141.026 122.355C140.991 122.925 140.99 123.499 141.023 124.07L116.218 139.557L128.038 149.738L149.781 133.471C151.477 133.098 153.036 131.956 154.215 130.225C155.394 128.493 156.127 126.268 156.299 123.898C156.478 121.172 155.869 118.458 154.605 116.355C153.342 114.252 151.528 112.931 149.563 112.683C149.495 112.674 149.427 112.667 149.359 112.661Z" fill="#FFB6B6"/>
<path d="M124.991 132.032L129.006 149.298L104.657 164.893C102.924 166.015 101.012 166.503 99.1037 166.311C97.1956 166.119 95.3546 165.254 93.7556 163.797C91.8132 162.009 90.3423 159.395 89.5644 156.346C88.7866 153.298 88.744 149.982 89.4432 146.897L102.49 90.9112C103.382 86.9894 105.324 83.691 107.916 81.6945C110.508 79.6979 113.552 79.155 116.424 80.1774C117.823 80.6693 119.139 81.5387 120.296 82.736C121.453 83.9333 122.429 85.435 123.167 87.1554C123.906 88.8758 124.393 90.7812 124.601 92.7628C124.809 94.7444 124.734 96.7634 124.379 98.7045C124.351 98.8578 124.321 99.0106 124.29 99.1627C124.179 99.7036 124.048 100.236 123.896 100.757L111.86 140.037L124.991 132.032Z" fill="#FB8700"/>
</g>
<defs>
<clipPath id="clip0_1_2561">
<rect width="500" height="500" fill="white"/>
</clipPath>
</defs>
</svg>
