<svg width="160" height="106" viewBox="0 0 160 106" fill="none" xmlns="http://www.w3.org/2000/svg">
<path d="M92.99 12.1525C94.209 11.3006 95.4664 10.4801 96.76 9.69252C102.59 6.14502 111.5 1.87002 121.68 1.12002C124.637 0.88778 127.623 0.988905 130.54 1.42003C142.92 3.22753 152.01 10.6 157.17 15.895C163.12 21.9775 158.17 29.545 149.8 31.57L108 41.7175L77.02 71.7625C67.32 81.1675 47.34 74.335 50.45 62.6725L53.38 51.6925L23.2 59.5C20.5648 60.1809 17.7508 60.3799 14.9923 60.0803C12.2338 59.7807 9.61064 58.9914 7.34112 57.7779C5.07159 56.5643 3.22137 54.9618 1.94447 53.1036C0.66756 51.2455 0.000906886 49.1855 0 47.095V24.7C0 24.13 0.0600005 23.59 0.190001 23.0725C1.76 16.345 13.02 13.945 19.21 18.4225C20.17 19.0975 21.01 19.9525 21.66 20.9725L27.59 30.1525L85.64 15.64C88.22 14.995 90.67 13.7725 92.99 12.1525ZM33.84 20.68L71.14 11.3575L55.08 3.10003C52.4219 1.73211 49.2737 0.999984 46.05 1.00003C32.8 1.00003 25.32 12.4375 33.45 20.2975L33.84 20.68ZM7.5 94.75C5.51088 94.75 3.60322 95.3427 2.1967 96.3975C0.790175 97.4524 0 98.8832 0 100.375C0 101.867 0.790175 103.298 2.1967 104.353C3.60322 105.407 5.51088 106 7.5 106H152.5C154.489 106 156.397 105.407 157.803 104.353C159.21 103.298 160 101.867 160 100.375C160 98.8832 159.21 97.4524 157.803 96.3975C156.397 95.3427 154.489 94.75 152.5 94.75H7.5Z" fill="url(#paint0_linear_52_134)"/>
<defs>
<linearGradient id="paint0_linear_52_134" x1="80" y1="0.998535" x2="80" y2="106" gradientUnits="userSpaceOnUse">
<stop stop-color="#FB8700"/>
<stop offset="1" stop-color="#FFD94F"/>
</linearGradient>
</defs>
</svg>
