<svg width="198" height="100" viewBox="0 0 198 100" fill="none" xmlns="http://www.w3.org/2000/svg">
<path d="M23.0002 59.375L16.7502 50H60.5002L55.5002 40.625H14.6668L8.41683 31.25H73.4168L68.4168 21.875H7.25016L0.0834961 12.5H31.3335C31.3335 9.18479 33.0894 6.00537 36.2151 3.66116C39.3407 1.31696 43.5799 0 48.0002 0H148V25H173L198 50V81.25H181.334C181.334 86.2228 178.7 90.992 174.011 94.5083C169.323 98.0246 162.964 100 156.334 100C149.703 100 143.344 98.0246 138.656 94.5083C133.967 90.992 131.334 86.2228 131.334 81.25H98.0002C98.0002 86.2228 95.3662 90.992 90.6778 94.5083C85.9894 98.0246 79.6306 100 73.0002 100C66.3698 100 60.0109 98.0246 55.3225 94.5083C50.6341 90.992 48.0002 86.2228 48.0002 81.25H31.3335V59.375H23.0002ZM156.334 90.625C159.649 90.625 162.828 89.6373 165.172 87.8791C167.517 86.121 168.834 83.7364 168.834 81.25C168.834 78.7636 167.517 76.379 165.172 74.6209C162.828 72.8627 159.649 71.875 156.334 71.875C153.018 71.875 149.839 72.8627 147.495 74.6209C145.15 76.379 143.834 78.7636 143.834 81.25C143.834 83.7364 145.15 86.121 147.495 87.8791C149.839 89.6373 153.018 90.625 156.334 90.625ZM168.834 34.375H148V50H185.167L168.834 34.375ZM73.0002 90.625C76.3154 90.625 79.4948 89.6373 81.839 87.8791C84.1832 86.121 85.5002 83.7364 85.5002 81.25C85.5002 78.7636 84.1832 76.379 81.839 74.6209C79.4948 72.8627 76.3154 71.875 73.0002 71.875C69.685 71.875 66.5055 72.8627 64.1613 74.6209C61.8171 76.379 60.5002 78.7636 60.5002 81.25C60.5002 83.7364 61.8171 86.121 64.1613 87.8791C66.5055 89.6373 69.685 90.625 73.0002 90.625Z" fill="url(#paint0_linear_52_3)"/>
<defs>
<linearGradient id="paint0_linear_52_3" x1="99.0418" y1="0" x2="99.0418" y2="100" gradientUnits="userSpaceOnUse">
<stop stop-color="#F09E3E"/>
<stop offset="1" stop-color="#FFD94F"/>
</linearGradient>
</defs>
</svg>
