<svg width="28" height="23" viewBox="0 0 28 23" fill="none" xmlns="http://www.w3.org/2000/svg">
<path d="M8.80575 23C19.3723 23 25.1507 14.1521 25.1507 6.47993C25.1507 6.22854 25.1456 5.97845 25.1342 5.72932C26.2558 4.90983 27.2309 3.88693 28 2.72304C26.9707 3.18524 25.8631 3.49649 24.7011 3.63683C25.887 2.91809 26.7978 1.7806 27.2274 0.424871C26.1173 1.09018 24.888 1.57363 23.5798 1.83435C22.5311 0.705865 21.0381 0 19.3863 0C16.2135 0 13.6406 2.6004 13.6406 5.8056C13.6406 6.26137 13.6913 6.70427 13.7893 7.12946C9.0153 6.88709 4.78168 4.57637 1.94866 1.06346C1.45473 1.92125 1.17034 2.91841 1.17034 3.98156C1.17034 5.99583 2.18464 7.77417 3.72694 8.81478C2.78462 8.78549 1.8993 8.52349 1.12512 8.08832C1.12385 8.11246 1.12385 8.13692 1.12385 8.16235C1.12385 10.9745 3.10435 13.3223 5.73261 13.8543C5.25014 13.9873 4.74251 14.0587 4.21833 14.0587C3.84828 14.0587 3.48842 14.0214 3.13843 13.9541C3.86961 16.2606 5.99056 17.9395 8.50512 17.9868C6.53863 19.5444 4.06165 20.4723 1.37034 20.4723C0.906975 20.4723 0.449666 20.4456 0 20.3919C2.54227 22.0386 5.56096 23 8.80575 23Z" fill="#3C6BB4"/>
</svg>
